<svg width="42" height="42" viewBox="0 0 42 42" fill="none" xmlns="http://www.w3.org/2000/svg">
<path d="M37.7894 31.4182C37.7298 31.3687 30.9843 26.5627 29.1629 26.8631C28.2843 27.0184 27.7825 27.618 26.7756 28.8172C26.6136 29.0107 26.2232 29.4731 25.9217 29.8028C25.2854 29.5954 24.6647 29.3428 24.0644 29.0467C20.9656 27.5381 18.4619 25.0344 16.9532 21.9356C16.6572 21.3353 16.4046 20.7146 16.1973 20.0782C16.528 19.7756 16.9915 19.3853 17.1895 19.2188C18.3831 18.2175 18.9816 17.7146 19.1369 16.8349C19.4552 15.0135 14.6313 8.27025 14.5817 8.2095C14.3621 7.89794 14.0759 7.63904 13.744 7.45149C13.4121 7.26395 13.0427 7.15243 12.6625 7.125C10.7072 7.125 5.125 14.3655 5.125 15.5861C5.125 15.657 5.22738 22.8615 14.1115 31.8986C23.1385 40.7726 30.343 40.875 30.4139 40.875C31.6334 40.875 38.875 35.2927 38.875 33.3375C38.8473 32.9572 38.7355 32.5878 38.5478 32.2559C38.3601 31.924 38.101 31.6379 37.7894 31.4182ZM30.289 38.6182C29.3125 38.535 23.26 37.7374 15.7 30.3113C8.23787 22.7141 7.4605 16.6515 7.38287 15.7121C8.8575 13.3976 10.6384 11.2931 12.6771 9.456C12.7221 9.501 12.7818 9.5685 12.8583 9.65625C14.4218 11.7906 15.7687 14.0756 16.879 16.4771C16.5179 16.8404 16.1363 17.1825 15.736 17.502C15.1152 17.975 14.5452 18.5111 14.035 19.1017C13.9487 19.2229 13.8872 19.3599 13.8542 19.5049C13.8212 19.6499 13.8172 19.8001 13.8426 19.9466C14.0807 20.9779 14.4453 21.9759 14.9282 22.9178C16.6584 26.4705 19.5292 29.341 23.0823 31.0706C24.0239 31.5542 25.0219 31.9193 26.0534 32.1574C26.1999 32.1827 26.3501 32.1788 26.4951 32.1458C26.6401 32.1128 26.7771 32.0513 26.8983 31.965C27.491 31.4528 28.029 30.8804 28.5036 30.2572C28.8569 29.8365 29.3283 29.2751 29.5071 29.1165C31.9148 30.2257 34.2048 31.5742 36.3426 33.1418C36.436 33.2205 36.5024 33.2812 36.5462 33.3206C34.709 35.36 32.6041 37.1413 30.289 38.616V38.6182Z" fill="black"/>
<path d="M23.125 16.125C24.9147 16.1268 26.6305 16.8385 27.896 18.104C29.1615 19.3695 29.8732 21.0853 29.875 22.875C29.875 23.1734 29.9935 23.4595 30.2045 23.6705C30.4155 23.8815 30.7016 24 31 24C31.2984 24 31.5845 23.8815 31.7955 23.6705C32.0065 23.4595 32.125 23.1734 32.125 22.875C32.1223 20.4889 31.1732 18.2012 29.486 16.514C27.7988 14.8268 25.5111 13.8777 23.125 13.875C22.8266 13.875 22.5405 13.9935 22.3295 14.2045C22.1185 14.4155 22 14.7016 22 15C22 15.2984 22.1185 15.5845 22.3295 15.7955C22.5405 16.0065 22.8266 16.125 23.125 16.125Z" fill="black"/>
<path d="M23.125 10.5C26.4059 10.5039 29.5512 11.8089 31.8712 14.1288C34.1911 16.4488 35.4961 19.5941 35.5 22.875C35.5 23.1734 35.6185 23.4595 35.8295 23.6705C36.0405 23.8815 36.3266 24 36.625 24C36.9234 24 37.2095 23.8815 37.4205 23.6705C37.6315 23.4595 37.75 23.1734 37.75 22.875C37.7455 18.9976 36.2033 15.2802 33.4615 12.5385C30.7198 9.79674 27.0024 8.25447 23.125 8.25C22.8266 8.25 22.5405 8.36853 22.3295 8.5795C22.1185 8.79048 22 9.07663 22 9.375C22 9.67337 22.1185 9.95952 22.3295 10.1705C22.5405 10.3815 22.8266 10.5 23.125 10.5Z" fill="black"/>
</svg>
