<svg width="42" height="42" viewBox="0 0 42 42" fill="none" xmlns="http://www.w3.org/2000/svg">
<path d="M32.3304 18.1814V10.2331C32.3304 10.0056 32.2253 9.79535 32.0766 9.62904L23.1654 0.271408C22.9991 0.0964506 22.7626 0 22.5264 0H8.39785C5.78952 0 3.70605 2.12704 3.70605 4.7357V31.4519C3.70605 34.0605 5.78952 36.1527 8.39785 36.1527H19.5502C21.6597 39.654 25.494 41.9999 29.8618 41.9999C36.497 41.9999 41.9156 36.6077 41.9156 29.9638C41.9245 24.1601 37.7576 19.3106 32.3304 18.1814ZM23.4019 3.07264L29.3805 9.36629H25.5026C24.3471 9.36629 23.4019 8.41236 23.4019 7.25687V3.07264ZM8.39785 34.4018C6.76107 34.4018 5.45691 33.0887 5.45691 31.4519V4.7357C5.45691 3.08995 6.76107 1.75085 8.39785 1.75085H21.651V7.25687C21.651 9.38391 23.3756 11.1171 25.5026 11.1171H30.5796V17.9536C30.3171 17.945 30.1069 17.9187 29.8794 17.9187C26.8244 17.9187 24.0145 19.0918 21.8961 20.9301H10.779C10.2974 20.9301 9.90357 21.3239 9.90357 21.8052C9.90357 22.2868 10.2974 22.6806 10.779 22.6806H20.268C19.6464 23.5561 19.1298 24.4315 18.7274 25.3944H10.779C10.2974 25.3944 9.90357 25.7882 9.90357 26.2698C9.90357 26.7511 10.2974 27.1453 10.779 27.1453H18.1583C17.9394 28.0207 17.8257 28.9922 17.8257 29.9638C17.8257 31.5394 18.132 33.0976 18.6835 34.4108H8.39785V34.4018ZM29.8708 40.2581C24.1985 40.2581 19.5852 35.6448 19.5852 29.9724C19.5852 24.3001 24.1895 19.6868 29.8708 19.6868C35.5518 19.6868 40.1561 24.3001 40.1561 29.9724C40.1561 35.6448 35.5431 40.2581 29.8708 40.2581Z" fill="black"/>
<path d="M10.7787 18.2953H19.6461C20.1277 18.2953 20.5215 17.9012 20.5215 17.4199C20.5215 16.9382 20.1277 16.5444 19.6461 16.5444H10.7787C10.2971 16.5444 9.90332 16.9382 9.90332 17.4199C9.90332 17.9012 10.2971 18.2953 10.7787 18.2953Z" fill="black"/>
<path d="M30.4919 23.5122C30.3256 23.3373 30.0981 23.2322 29.8529 23.2322C29.6078 23.2322 29.3803 23.3373 29.214 23.5122L24.0842 29.0183C23.7515 29.3685 23.7778 29.9286 24.1281 30.2526C24.4783 30.5852 25.0471 30.5589 25.3797 30.209L29.0038 26.3311V35.89C29.0038 36.3716 29.3976 36.7654 29.8792 36.7654C30.3605 36.7654 30.7546 36.3716 30.7546 35.89V26.3311L34.3521 30.209C34.5274 30.3926 34.7549 30.489 34.9914 30.489C35.2013 30.489 35.4115 30.4102 35.5865 30.2526C35.9367 29.92 35.963 29.3685 35.6304 29.0183L30.4919 23.5122Z" fill="black"/>
</svg>
