<svg width="46" height="46" viewBox="0 0 46 46" fill="none" xmlns="http://www.w3.org/2000/svg">
<path d="M38.6878 34.0209C39.0691 34.0209 39.4347 33.8694 39.7043 33.5998C39.9739 33.3303 40.1253 32.9646 40.1253 32.5834C40.1253 32.2021 39.9739 31.8365 39.7043 31.5669C39.4347 31.2973 39.0691 31.1459 38.6878 31.1459V34.0209ZM25.8366 40.7541C25.774 40.9339 25.7478 41.1244 25.7595 41.3144C25.7711 41.5044 25.8204 41.6902 25.9044 41.8611C25.9885 42.0319 26.1056 42.1843 26.2491 42.3095C26.3925 42.4347 26.5594 42.5301 26.74 42.5903C26.9206 42.6504 27.1114 42.6741 27.3012 42.66C27.4911 42.6458 27.6762 42.5941 27.8459 42.5078C28.0156 42.4215 28.1665 42.3023 28.2897 42.1572C28.413 42.0121 28.5062 41.844 28.564 41.6626L25.8366 40.7541ZM7.66275 31.1459C7.2815 31.1459 6.91587 31.2973 6.64629 31.5669C6.3767 31.8365 6.22525 32.2021 6.22525 32.5834C6.22525 32.9646 6.3767 33.3303 6.64629 33.5998C6.91587 33.8694 7.2815 34.0209 7.66275 34.0209V31.1459ZM17.7847 41.6626C17.9089 42.0196 18.1686 42.3133 18.5077 42.4801C18.8469 42.647 19.2381 42.6736 19.5966 42.5541C19.9552 42.4347 20.2523 42.1788 20.4237 41.8419C20.595 41.5051 20.6268 41.1143 20.5121 40.7541L17.7847 41.6626ZM10.6489 10.465C10.5503 10.0968 10.3094 9.78273 9.97927 9.59204C9.64912 9.40136 9.25675 9.34963 8.88846 9.44825C8.52017 9.54687 8.20615 9.78774 8.01546 10.1179C7.82478 10.448 7.77305 10.8404 7.87167 11.2087L10.6489 10.465ZM3.11834 22.979C2.80037 23.1894 2.57904 23.5175 2.50301 23.8912C2.42699 24.2648 2.50251 24.6534 2.71296 24.9713C2.92341 25.2893 3.25155 25.5106 3.62519 25.5867C3.99883 25.6627 4.38737 25.5872 4.70534 25.3767L3.11834 22.979ZM38.2068 11.2106C38.2556 11.0283 38.268 10.8381 38.2433 10.6509C38.2187 10.4638 38.1574 10.2833 38.063 10.1198C37.9685 9.95634 37.8428 9.81306 37.6931 9.69816C37.5433 9.58327 37.3723 9.499 37.19 9.45017C36.8217 9.35155 36.4293 9.40327 36.0991 9.59396C35.9357 9.68838 35.7924 9.81407 35.6775 9.96386C35.5626 10.1136 35.4783 10.2846 35.4295 10.467L38.2068 11.2106ZM41.3731 25.3767C41.691 25.5872 42.0796 25.6627 42.4532 25.5867C42.8269 25.5106 43.155 25.2893 43.3655 24.9713C43.5759 24.6534 43.6514 24.2648 43.5754 23.8912C43.4994 23.5175 43.278 23.1894 42.9601 22.979L41.3731 25.3767ZM30.8391 7.35237C31.1449 7.13049 31.351 6.79714 31.4129 6.42444C31.4749 6.05173 31.3876 5.66963 31.1699 5.3608C30.9523 5.05197 30.6218 4.84124 30.25 4.77419C29.8782 4.70715 29.4949 4.78918 29.1831 5.00254L30.8391 7.35237ZM16.5139 4.59429C16.3626 4.47597 16.1891 4.38917 16.0037 4.33903C15.8183 4.28888 15.6247 4.27641 15.4343 4.30234C15.244 4.32827 15.0608 4.39209 14.8956 4.49001C14.7303 4.58794 14.5864 4.71799 14.4722 4.87248C14.3581 5.02698 14.2761 5.20278 14.231 5.38951C14.186 5.57623 14.1788 5.77009 14.2099 5.95964C14.2411 6.14918 14.3099 6.33057 14.4123 6.49307C14.5147 6.65558 14.6486 6.79592 14.8062 6.90579L16.5139 4.59429ZM40.685 23C40.685 32.7942 32.7558 40.7292 22.9788 40.7292V43.6042C34.3466 43.6042 43.56 34.3774 43.56 23H40.685ZM22.9788 40.7292C13.2 40.7292 5.27075 32.7942 5.27075 23H2.39575C2.39575 34.3774 11.6092 43.6042 22.9788 43.6042V40.7292ZM5.27075 23C5.27075 13.2059 13.2 5.27087 22.9788 5.27087V2.39587C11.6092 2.39587 2.39575 11.6227 2.39575 23H5.27075ZM22.9788 5.27087C32.7538 5.27087 40.685 13.2059 40.685 23H43.56C43.56 11.6227 34.3466 2.39587 22.9788 2.39587V5.27087ZM23.2663 19.2817L26.7873 21.9727L28.5333 19.69L25.0124 16.997L23.2663 19.2817ZM26.954 22.496L25.5702 26.9752L28.3187 27.8224L29.6987 23.3431L26.954 22.496ZM25.114 27.3125H20.8398V30.1875H25.114V27.3125ZM20.3856 26.9752L19.0018 22.496L16.2552 23.3431L17.6371 27.8224L20.3856 26.9752ZM19.1666 21.9727L22.6875 19.2798L20.9414 16.997L17.4205 19.69L19.1666 21.9727ZM38.6878 31.1459H35.5924V34.0209H38.6878V31.1459ZM26.9636 37.3712L25.8366 40.7541L28.564 41.6626L29.6891 38.2797L26.9636 37.3712ZM35.5924 31.1459C34.2929 31.1459 33.1947 31.144 32.3034 31.2455C31.3758 31.351 30.5228 31.5829 29.7504 32.1406L31.4333 34.4732C31.6632 34.3065 31.9776 34.1761 32.6312 34.1014C33.3212 34.0247 34.2258 34.0209 35.5924 34.0209V31.1459ZM29.6891 38.2797C30.1223 36.984 30.4078 36.1254 30.703 35.4948C30.979 34.8968 31.2033 34.638 31.4333 34.4732L29.7504 32.1406C28.9761 32.7003 28.4873 33.4344 28.0944 34.2835C27.7149 35.098 27.3738 36.1388 26.9636 37.3712L29.6891 38.2797ZM7.66467 34.0209H10.7601V31.1459H7.66275L7.66467 34.0209ZM16.6615 38.2797L17.7847 41.6626L20.514 40.7541L19.3889 37.3712L16.6615 38.2797ZM10.7601 34.0209C12.1267 34.0209 13.0275 34.0228 13.7194 34.1014C14.3711 34.178 14.6873 34.3065 14.9173 34.4732L16.6002 32.1406C15.8258 31.5848 14.9729 31.351 14.0453 31.2455C13.154 31.144 12.0577 31.1459 10.7601 31.1459V34.0209ZM19.3889 37.3712C18.9768 36.1388 18.6338 35.098 18.2543 34.2835C17.8613 33.4363 17.3726 32.7003 16.6002 32.1406L14.9173 34.4732C15.1473 34.638 15.3697 34.8949 15.6476 35.4948C15.9408 36.1273 16.2283 36.984 16.6615 38.2797L19.3889 37.3712ZM7.87167 11.2087L8.67284 14.2006L11.4501 13.457L10.6489 10.465L7.87167 11.2087ZM6.09109 21.0144L3.12025 22.977L4.70534 25.3767L7.67617 23.4102L6.09109 21.0144ZM8.67284 14.2006C9.0255 15.5212 9.25742 16.3952 9.36092 17.0833C9.45675 17.735 9.41267 18.0761 9.313 18.3406L12.0021 19.3603C12.3394 18.4671 12.3413 17.5855 12.2033 16.6597C12.0711 15.7723 11.7855 14.7124 11.4501 13.457L8.67284 14.2006ZM7.67617 23.4102C8.761 22.6934 9.67525 22.0915 10.3633 21.5146C11.0802 20.9147 11.6628 20.2515 12.0021 19.3603L9.313 18.3406C9.21334 18.6051 9.02167 18.8888 8.51567 19.3124C7.98283 19.759 7.2315 20.2611 6.09109 21.0144L7.67617 23.4102ZM35.4295 10.467L34.6283 13.4589L37.4056 14.2006L38.2068 11.2068L35.4295 10.467ZM38.4003 23.4102L41.3731 25.3767L42.9601 22.977L39.9873 21.0125L38.4003 23.4102ZM34.6283 13.4589C34.2929 14.7162 34.0073 15.7723 33.8751 16.6597C33.7371 17.5855 33.739 18.469 34.0763 19.3603L36.7654 18.3406C36.6657 18.0761 36.6217 17.7369 36.7175 17.0833C36.821 16.3933 37.0529 15.5212 37.4056 14.2006L34.6283 13.4589ZM39.9873 21.0125C38.8488 20.2592 38.0956 19.759 37.5628 19.3124C37.0568 18.8907 36.8651 18.6051 36.7654 18.3406L34.0763 19.3603C34.4156 20.2515 34.9983 20.9147 35.7151 21.5146C36.4032 22.0915 37.3174 22.6953 38.4022 23.4121L39.9873 21.0125ZM29.1831 5.00254L26.6531 6.78887L28.3091 9.13679L30.8391 7.35237L29.1831 5.00254ZM19.3793 6.70837L16.512 4.59621L14.8062 6.90771L17.6716 9.02179L19.3793 6.70837ZM26.6512 6.78887C25.5357 7.57471 24.7958 8.09412 24.1863 8.42762C23.6075 8.74387 23.2759 8.81862 22.9942 8.81671L22.9616 11.6917C23.9161 11.7013 24.7441 11.3985 25.5663 10.95C26.3522 10.5187 27.2473 9.88621 28.3072 9.13679L26.6512 6.78887ZM17.6716 9.02179C18.7181 9.79421 19.5978 10.4459 20.3741 10.8944C21.1848 11.3601 22.009 11.6802 22.9616 11.6917L22.9942 8.81671C22.7105 8.81287 22.3808 8.73046 21.8097 8.40271C21.2059 8.05579 20.4776 7.51912 19.3793 6.70837L17.6716 9.02179ZM26.7873 21.9727C26.8665 22.0332 26.9248 22.117 26.954 22.2123L29.7006 21.3632C29.4947 20.6978 29.0867 20.113 28.5333 19.69L26.7873 21.9727ZM26.954 22.2123C26.9826 22.3047 26.9826 22.4036 26.954 22.496L29.7006 23.3431C29.8998 22.6982 29.8998 22.0081 29.7006 21.3632L26.954 22.2123ZM34.8698 17.5222L27.7782 20.4605L28.8764 23.117L35.9719 20.1787L34.8698 17.5222ZM25.0124 16.997C24.4282 16.5495 23.7128 16.307 22.9769 16.307V19.182C23.0819 19.1813 23.1841 19.2164 23.2663 19.2817L25.0124 16.997ZM22.9769 16.307C22.262 16.307 21.5433 16.537 20.9433 16.997L22.6875 19.2798C22.7713 19.2164 22.8738 19.1827 22.9788 19.184L22.9769 16.307ZM24.4144 17.7445V10.2542H21.5394V17.7445H24.4144ZM25.5702 26.9752C25.5419 27.0684 25.4857 27.1507 25.4092 27.211L27.1878 29.4688C27.7232 29.0476 28.1177 28.4733 28.3187 27.8224L25.5702 26.9752ZM25.4092 27.211C25.3257 27.2769 25.2223 27.3127 25.1159 27.3125V30.1875C25.8864 30.1875 26.6109 29.923 27.1878 29.4688L25.4092 27.211ZM31.6805 32.3668L27.3872 27.3988L25.2118 29.281L29.5051 34.247L31.6805 32.3668ZM20.8398 27.3125C20.7334 27.3127 20.6301 27.2769 20.5466 27.211L18.7679 29.4688C19.3429 29.923 20.0693 30.1875 20.8398 30.1875V27.3125ZM20.5466 27.211C20.47 27.1507 20.4138 27.0684 20.3856 26.9752L17.6371 27.8224C17.8441 28.4913 18.2447 29.0586 18.7679 29.4707L20.5466 27.211ZM16.8858 34.1934L20.7881 29.2254L18.5264 27.4505L14.626 32.4166L16.8858 34.1934ZM19.0018 22.494C18.9731 22.4017 18.9731 22.3047 19.0018 22.2123L16.2552 21.3613C16.0559 22.0062 16.0559 22.6982 16.2552 23.3431L19.0018 22.494ZM19.0018 22.2123C19.0309 22.117 19.0893 22.0313 19.1685 21.9708L17.4224 19.69C16.8686 20.1134 16.4606 20.6951 16.2552 21.3613L19.0018 22.2123ZM18.1872 20.4624L11.2163 17.526L10.0988 20.1749L17.0698 23.1131L18.1872 20.4624Z" fill="#3C405B"/>
</svg>
