<svg width="48" height="48" viewBox="0 0 48 48" fill="none" xmlns="http://www.w3.org/2000/svg">
<g clip-path="url(#clip0_715_1266)">
<path d="M47.2983 26.8198H0.701288C0.31384 26.8198 0 27.1337 0 27.5207C0 27.9082 0.31384 28.222 0.701288 28.222H47.2983C47.6858 28.222 47.9996 27.9082 47.9996 27.5207C47.9996 27.1337 47.6858 26.8198 47.2983 26.8198Z" fill="black"/>
<path d="M0 22.0664C0 22.4535 0.31384 22.7673 0.701288 22.7673H47.2983C47.6854 22.7673 47.9996 22.4535 47.9996 22.0664C47.9996 21.679 47.6854 21.3651 47.2983 21.3651H44.7243L47.9707 6.99513C48.0681 6.56374 47.9084 6.10598 47.5635 5.82912L40.763 0.370059C40.589 0.230534 40.3715 0.167912 40.1503 0.193547C39.9291 0.218815 39.7314 0.32941 39.5944 0.504091L36.7581 4.11051L34.1507 2.63799C33.8955 2.49407 33.5794 2.49626 33.326 2.64384C33.073 2.79179 32.9155 3.06572 32.9155 3.35905V5.85622H15.0841V3.35905C15.0841 3.06572 14.9266 2.79179 14.6736 2.64384C14.4205 2.49626 14.1045 2.4937 13.8493 2.63799L11.2415 4.11051L8.40557 0.504457C8.26788 0.32941 8.07049 0.218815 7.8493 0.193547C7.62811 0.167912 7.41059 0.230534 7.23627 0.370425L0.435788 5.82949C0.0911858 6.10634 -0.0688471 6.56374 0.0285643 6.99513L3.275 21.3651H0.701288C0.31384 21.3651 0 21.679 0 22.0664ZM34.3181 4.34342L40.7124 7.95423L39.8863 16.6176C39.8493 17.0032 40.132 17.3456 40.5176 17.3823C40.5403 17.3845 40.5627 17.3855 40.585 17.3855C40.9424 17.3855 41.2478 17.1138 41.2823 16.7509L42.1231 7.93445C42.167 7.47706 41.9367 7.03505 41.536 6.80873L37.9937 4.8085L40.3378 1.8272L46.5703 6.83034L43.2869 21.3651H40.8421L41.0054 19.6527C41.042 19.2671 40.7593 18.9247 40.3741 18.8881C39.9892 18.8511 39.646 19.1338 39.6094 19.5194L39.4333 21.3651H36.025V7.03834C36.025 6.38649 35.4947 5.85659 34.8432 5.85659H34.3181V4.34342ZM13.6815 5.85622H13.1242C12.4723 5.85622 11.9424 6.38649 11.9424 7.03834V9.01587C11.9424 9.40331 12.2563 9.71715 12.6437 9.71715C13.0308 9.71715 13.345 9.40331 13.345 9.01587V7.2588H34.6224V21.3651H13.345V11.9613C13.345 11.5738 13.0308 11.26 12.6437 11.26C12.2563 11.26 11.9424 11.5738 11.9424 11.9613V21.3651H8.56634L7.28717 7.95423L13.6815 4.34342V5.85622ZM1.42931 6.83034L7.66181 1.8272L10.0059 4.8085L6.46357 6.80873C6.06331 7.03505 5.8326 7.47669 5.87617 7.93445L7.15754 21.3651H4.71273L1.42931 6.83034Z" fill="black"/>
<path d="M19.3402 43.7342C18.9528 43.7342 18.6389 44.048 18.6389 44.4351V47.0689C18.6389 47.456 18.9528 47.7702 19.3402 47.7702C19.7273 47.7702 20.0415 47.4563 20.0415 47.0689V44.4351C20.0415 44.048 19.7273 43.7342 19.3402 43.7342Z" fill="black"/>
<path d="M45.4651 38.6681C45.4827 38.541 45.4922 38.4121 45.4922 38.2828C45.4922 36.9982 44.6426 35.9248 43.463 35.596V34.7039C43.463 33.2617 42.3439 32.0774 40.9289 31.972C40.9465 31.8449 40.9556 31.716 40.9556 31.5867C40.9556 30.0479 39.7032 28.7958 38.164 28.7958C36.6252 28.7958 35.3731 30.0475 35.3731 31.5867C35.3731 31.7138 35.3816 31.8405 35.3988 31.9657C34.6231 31.9888 33.9273 32.3352 33.4425 32.8754C32.9833 32.3638 32.3351 32.0262 31.6089 31.972C31.6268 31.8449 31.636 31.716 31.636 31.5867C31.636 30.0479 30.3839 28.7958 28.8451 28.7958C27.3056 28.7958 26.0531 30.0475 26.0531 31.5867C26.0531 31.7138 26.0619 31.8405 26.0791 31.9657C25.3035 31.9888 24.6081 32.3352 24.1232 32.8754C23.6644 32.3642 23.0162 32.0265 22.2904 31.972C22.3079 31.8449 22.3171 31.716 22.3171 31.5867C22.3171 30.0479 21.0647 28.7958 19.5255 28.7958C17.9859 28.7958 16.7335 30.0479 16.7335 31.5867C16.7335 31.7141 16.7423 31.8405 16.7595 31.9657C15.9839 31.9888 15.2885 32.3352 14.804 32.8754C14.3447 32.3638 13.6965 32.0262 12.9707 31.972C12.9883 31.8449 12.9975 31.716 12.9975 31.5867C12.9975 30.0479 11.745 28.7958 10.2059 28.7958C8.66631 28.7958 7.41388 30.0479 7.41388 31.5867C7.41388 31.7141 7.42267 31.8405 7.43988 31.9657C5.96736 32.0097 4.78304 33.2207 4.78304 34.7039V35.5659C3.55112 35.856 2.63084 36.9637 2.63084 38.2828C2.63084 38.4099 2.63926 38.5366 2.65647 38.6615C1.18432 38.7058 0 39.9161 0 41.3993V47.0685C0 47.456 0.31384 47.7698 0.701288 47.7698C1.08837 47.7698 1.40258 47.456 1.40258 47.0685V41.3993C1.40258 40.6617 2.00243 40.0619 2.73997 40.0619H3.62473C3.62729 40.0619 3.62985 40.0622 3.63205 40.0622C3.63425 40.0622 3.63681 40.0619 3.63901 40.0619H7.98224C8.71978 40.0619 9.31963 40.6617 9.31963 41.3993V47.0685C9.31963 47.456 9.63347 47.7698 10.0209 47.7698C10.408 47.7698 10.7218 47.456 10.7218 47.0685V41.3993C10.7218 40.6617 11.3221 40.0619 12.0592 40.0619H16.5262C16.5284 40.0619 16.531 40.0622 16.5332 40.0622C16.5358 40.0622 16.538 40.0619 16.5405 40.0619H17.3019C18.039 40.0619 18.6389 40.6617 18.6389 41.3993C18.6389 41.738 18.8795 42.0207 19.1988 42.0863C19.2446 42.0954 19.2922 42.1005 19.3405 42.1005C19.728 42.1005 20.0418 41.7867 20.0418 41.3993C20.0418 40.6621 20.6417 40.0622 21.3789 40.0622H22.2695H22.2709H25.8525H25.8539H26.6211C27.3583 40.0622 27.9582 40.6621 27.9582 41.3993V47.0685C27.9582 47.456 28.272 47.7698 28.6594 47.7698C29.0469 47.7698 29.3607 47.456 29.3607 47.0685V41.3993C29.3607 40.6621 29.9609 40.0622 30.6985 40.0622H31.5891H31.5906H35.1725H35.1735H35.9408C36.6779 40.0622 37.2778 40.6621 37.2778 41.3993V47.0685C37.2778 47.456 37.5916 47.7698 37.9791 47.7698C38.3662 47.7698 38.6804 47.456 38.6804 47.0685V41.3993C38.6804 40.6621 39.2806 40.0622 40.0181 40.0622H40.908H40.9091H44.4921H44.4935H45.2604C45.9976 40.0622 46.5974 40.6621 46.5974 41.3993V47.0685C46.5974 47.456 46.9116 47.7698 47.2987 47.7698C47.6861 47.7698 48 47.456 48 47.0685V41.3993C47.9996 39.9575 46.8801 38.7735 45.4651 38.6681ZM44.0896 38.2828C44.0896 38.411 44.072 38.5377 44.0376 38.6597H41.3628C41.3288 38.5377 41.3108 38.411 41.3108 38.2828C41.3108 37.5167 41.9341 36.8938 42.7002 36.8938H42.7119C42.7222 36.8945 42.7321 36.8949 42.7423 36.8953C43.4978 36.9165 44.0896 37.5262 44.0896 38.2828ZM38.164 30.1984C38.9301 30.1984 39.5534 30.8213 39.5534 31.5867C39.5534 31.7149 39.5355 31.8416 39.501 31.9635H36.8277C36.7933 31.8416 36.7753 31.7149 36.7753 31.5867C36.7753 30.8213 37.3983 30.1984 38.164 30.1984ZM34.718 38.6597H32.0443C32.0099 38.5377 31.9923 38.411 31.9923 38.2828C31.9923 37.5167 32.6152 36.8938 33.3806 36.8938H33.3923C33.4026 36.8945 33.4125 36.8949 33.4227 36.8953C34.1782 36.9165 34.77 37.5262 34.77 38.2832C34.77 38.411 34.7524 38.5377 34.718 38.6597ZM28.8451 30.1984C29.6109 30.1984 30.2334 30.8213 30.2334 31.5867C30.2334 31.7149 30.2158 31.8416 30.1814 31.9635H27.5081C27.4737 31.8416 27.4557 31.7149 27.4557 31.5867C27.4557 30.8213 28.079 30.1984 28.8451 30.1984ZM25.3984 38.6597H22.7247C22.6903 38.5377 22.6727 38.411 22.6727 38.2828C22.6727 37.5167 23.296 36.8938 24.0621 36.8938H24.0738C24.0837 36.8945 24.0939 36.8949 24.1038 36.8953C24.8589 36.9165 25.4504 37.5262 25.4504 38.2832C25.4504 38.411 25.4328 38.5377 25.3984 38.6597ZM19.5255 30.1984C20.2916 30.1984 20.9149 30.8213 20.9149 31.5867C20.9149 31.7149 20.8973 31.8416 20.8629 31.9635H18.1885C18.154 31.8416 18.1361 31.7149 18.1361 31.5867C18.1361 30.8213 18.7594 30.1984 19.5255 30.1984ZM16.0798 38.6593H13.405C13.3706 38.5373 13.353 38.411 13.353 38.2828C13.353 37.5167 13.9763 36.8938 14.7424 36.8938H14.7527C14.7633 36.8945 14.7739 36.8949 14.7842 36.8953C15.5397 36.9165 16.1315 37.5262 16.1315 38.2832C16.1318 38.411 16.1139 38.5373 16.0798 38.6593ZM10.2059 30.1984C10.972 30.1984 11.5952 30.8213 11.5952 31.5867C11.5952 31.7149 11.5773 31.8416 11.5432 31.9635H8.86883C8.8344 31.8416 8.81682 31.7149 8.81682 31.5867C8.81682 30.8213 9.43974 30.1984 10.2059 30.1984ZM5.42281 36.8938H5.43306C5.44368 36.8945 5.4543 36.8949 5.46456 36.8953C6.22004 36.9165 6.8122 37.5262 6.8122 38.2832C6.8122 38.411 6.79426 38.5377 6.7602 38.6593H4.08542C4.05099 38.5377 4.03342 38.411 4.03342 38.2832C4.03342 37.5167 4.6567 36.8938 5.42281 36.8938ZM10.0206 39.5711C9.56169 39.0596 8.9135 38.7219 8.18768 38.6677C8.20526 38.5406 8.21441 38.4121 8.21441 38.2828C8.21441 36.9982 7.36518 35.9248 6.18562 35.596V34.7039C6.18562 33.9663 6.78547 33.3661 7.52265 33.3661H11.9951H11.9966H11.9981H12.766C13.5032 33.3661 14.103 33.9663 14.103 34.7039V35.5659C12.8707 35.856 11.9505 36.9637 11.9505 38.2832C11.9505 38.4103 11.9593 38.5366 11.9765 38.6615C11.2008 38.6846 10.5054 39.031 10.0206 39.5711ZM19.3405 39.5711C18.8813 39.0599 18.2331 38.7219 17.5073 38.6677C17.5249 38.5406 17.534 38.4121 17.534 38.2828C17.534 36.9978 16.6848 35.9244 15.5052 35.596V34.7039C15.5052 33.9663 16.1051 33.3661 16.8423 33.3661H21.3148H21.3162H21.3177H22.0845C22.8221 33.3661 23.4223 33.9663 23.4223 34.7039V35.5659C22.1904 35.856 21.2701 36.9637 21.2701 38.2828C21.2701 38.4103 21.2789 38.5366 21.2957 38.6618C20.5205 38.6849 19.825 39.0314 19.3405 39.5711ZM28.6591 39.5711C28.2002 39.0599 27.552 38.7223 26.8258 38.6681C26.8438 38.541 26.8529 38.4121 26.8529 38.2828C26.8529 36.9982 26.0041 35.9248 24.8249 35.596V34.7039C24.8249 33.9663 25.4247 33.3661 26.1619 33.3661H30.6337H30.6348H30.6362H31.4042C32.1413 33.3661 32.7412 33.9663 32.7412 34.7039V35.5659C31.5096 35.856 30.5897 36.9637 30.5897 38.2828C30.5897 38.4103 30.5985 38.5366 30.6157 38.6618C29.8401 38.6849 29.1439 39.0314 28.6591 39.5711ZM37.9787 39.5711C37.5198 39.0599 36.8717 38.7223 36.1455 38.6681C36.163 38.541 36.1726 38.4121 36.1726 38.2828C36.1726 36.9982 35.323 35.9248 34.1434 35.596V34.7039C34.1434 33.966 34.7436 33.3661 35.4815 33.3661H36.3725H36.374H36.3754H40.7238C41.461 33.3661 42.0608 33.966 42.0608 34.7039V35.5659C40.8285 35.856 39.9083 36.9637 39.9083 38.2828C39.9083 38.4103 39.917 38.5366 39.9343 38.6618C39.159 38.6853 38.4636 39.0317 37.9787 39.5711Z" fill="black"/>
</g>
<defs>
<clipPath id="clip0_715_1266">
<rect width="48" height="48" fill="white"/>
</clipPath>
</defs>
</svg>
