<svg width="49" height="49" viewBox="0 0 49 49" fill="none" xmlns="http://www.w3.org/2000/svg">
<g clip-path="url(#clip0_715_1174)">
<path d="M24.3638 23.5472C28.0388 23.5472 30.8971 20.5528 30.8971 16.8778C30.8971 13.2028 27.9027 10.3444 24.2277 10.3444C20.5527 10.3444 17.6943 13.3389 17.6943 16.8778C17.6943 20.5528 20.6888 23.5472 24.3638 23.5472ZM24.2277 13.0666C24.3638 13.0666 24.3638 13.0666 24.2277 13.0666C26.4054 13.0666 28.1749 14.8361 28.1749 17.0139C28.1749 19.1916 26.4054 20.825 24.2277 20.825C22.0499 20.825 20.4166 19.0555 20.4166 17.0139C20.4166 14.8361 22.186 13.0666 24.2277 13.0666Z" fill="#3C405B"/>
<path d="M44.5084 22.7305C41.9223 20.4166 38.5195 19.1916 34.9806 19.3277H33.8917C33.6195 20.4166 33.2112 21.3694 32.6667 22.1861C33.4834 22.05 34.164 22.05 34.9806 22.05C37.5667 21.9139 40.1529 22.7305 42.1945 24.2277V34.0277H44.9167V23.1389L44.5084 22.7305Z" fill="#3C405B"/>
<path d="M31.8499 10.6167C32.5304 8.98334 34.436 8.16667 36.2054 8.84723C37.8388 9.52778 38.6554 11.4333 37.9749 13.2028C37.4304 14.4278 36.2054 15.2444 34.9804 15.2444C34.7082 15.2444 34.2999 15.2445 34.0277 15.1083C34.1638 15.7889 34.1638 16.4694 34.1638 17.0139V17.8306C34.436 17.8306 34.7082 17.9667 34.9804 17.9667C38.3832 17.9667 41.1054 15.2445 41.1054 11.9778C41.1054 8.57501 38.3832 5.85278 35.1166 5.85278C32.9388 5.85278 31.0332 6.94167 29.9443 8.84723C30.6249 9.25556 31.3054 9.80001 31.8499 10.6167Z" fill="#3C405B"/>
<path d="M16.3333 22.3222C15.7888 21.5055 15.3805 20.5528 15.1083 19.4639H14.0194C10.4805 19.3278 7.0777 20.5528 4.49159 22.7305L4.08325 23.1389V34.0278H6.80547V24.2278C8.98325 22.7305 11.4333 21.9139 14.0194 22.05C14.836 22.05 15.6527 22.1861 16.3333 22.3222Z" fill="#3C405B"/>
<path d="M14.0195 17.8306C14.2917 17.8306 14.5639 17.8306 14.8361 17.6945V16.8778C14.8361 16.1972 14.8361 15.5167 14.9723 14.9722C14.7 15.1084 14.2917 15.1084 14.0195 15.1084C12.25 15.1084 10.7528 13.6111 10.7528 11.8417C10.7528 10.0722 12.25 8.57502 14.0195 8.57502C15.3806 8.57502 16.6056 9.39169 17.15 10.6167C17.6945 9.93613 18.5112 9.25558 19.1917 8.71113C17.4223 5.8528 13.7473 4.90002 10.8889 6.66947C8.03059 8.43891 7.07782 12.1139 8.84726 14.9722C9.93615 16.7417 11.8417 17.8306 14.0195 17.8306Z" fill="#3C405B"/>
<path d="M35.525 30.8972L35.2528 30.4889C32.5305 27.4944 28.7194 25.725 24.6361 25.8611C20.5528 25.725 16.6055 27.4944 13.8833 30.4889L13.6111 30.8972V41.2416C13.6111 42.4666 14.5639 43.5555 15.925 43.5555H33.3472C34.5722 43.5555 35.6611 42.4666 35.6611 41.2416V30.8972H35.525ZM32.8028 40.8333H16.3333V31.85C18.5111 29.6722 21.5055 28.5833 24.6361 28.5833C27.6305 28.4472 30.625 29.6722 32.8028 31.85V40.8333Z" fill="#3C405B"/>
</g>
<defs>
<clipPath id="clip0_715_1174">
<rect width="49" height="49" fill="white"/>
</clipPath>
</defs>
</svg>
