<svg width="47" height="47" viewBox="0 0 47 47" fill="none" xmlns="http://www.w3.org/2000/svg">
<g clip-path="url(#clip0_715_1249)">
<path d="M43.8013 10.7056C37.7734 6.72127 30.7032 4.60569 23.4776 4.62427C16.252 4.64285 9.19273 6.79476 3.18546 10.8101C3.04315 10.9061 2.92116 11.0292 2.82643 11.1723C2.7317 11.3155 2.6661 11.4759 2.63336 11.6444C2.56726 11.9847 2.63905 12.3374 2.83296 12.6248C3.02686 12.9122 3.32699 13.1108 3.66731 13.1769C4.00764 13.243 4.36029 13.1712 4.64768 12.9773C10.2278 9.25183 16.7832 7.25595 23.4926 7.23969C30.2021 7.22343 36.7671 9.18753 42.3652 12.8859C42.6543 13.0695 43.004 13.1322 43.3389 13.0604C43.6738 12.9886 43.967 12.788 44.1554 12.502C44.3438 12.216 44.4123 11.8674 44.3461 11.5313C44.2798 11.1953 44.0842 10.8987 43.8013 10.7056Z" fill="white"/>
<path d="M23.5653 13.9955C18.0522 13.9887 12.6684 15.6648 8.13359 18.7999C7.9282 19.0193 7.80476 19.3028 7.7841 19.6025C7.76343 19.9023 7.84681 20.2 8.02015 20.4455C8.19349 20.6909 8.4462 20.869 8.73562 20.9498C9.02505 21.0306 9.33347 21.009 9.60886 20.8888C13.7009 18.0907 18.5427 16.5935 23.5 16.5935C28.4573 16.5935 33.299 18.0907 37.3911 20.8888C37.6766 21.0524 38.0134 21.1022 38.334 21.0281C38.6547 20.954 38.9355 20.7615 39.1203 20.4893C39.3051 20.217 39.3803 19.885 39.3308 19.5596C39.2813 19.2343 39.1108 18.9396 38.8533 18.7347C34.3509 15.6512 29.0223 13.9994 23.5653 13.9955Z" fill="white"/>
<path d="M23.5653 23.3694C19.8054 23.3758 16.146 24.5834 13.1209 26.8161C12.8657 27.0288 12.7011 27.3307 12.6608 27.6604C12.6204 27.9902 12.7073 28.3229 12.9037 28.5908C13.1 28.8587 13.3912 29.0417 13.7177 29.1025C14.0443 29.1633 14.3818 29.0974 14.6614 28.9181C17.2325 27.0203 20.3397 25.9877 23.5352 25.969C26.7308 25.9502 29.8498 26.9462 32.4431 28.8136C32.5781 28.9438 32.7397 29.0433 32.9167 29.1054C33.0936 29.1675 33.2819 29.1908 33.4687 29.1736C33.6555 29.1564 33.8364 29.0991 33.9991 29.0057C34.1617 28.9123 34.3024 28.785 34.4114 28.6324C34.5204 28.4797 34.5953 28.3054 34.6308 28.1212C34.6664 27.9371 34.6619 27.7474 34.6176 27.5651C34.5733 27.3829 34.4902 27.2123 34.3741 27.065C34.2579 26.9177 34.1114 26.7972 33.9445 26.7117C30.9242 24.5301 27.291 23.3602 23.5653 23.3694Z" fill="white"/>
<path d="M23.5001 31.8817C22.4672 31.8817 21.4575 32.188 20.5987 32.7618C19.74 33.3356 19.0706 34.1512 18.6754 35.1055C18.2801 36.0597 18.1767 37.1097 18.3782 38.1227C18.5797 39.1358 19.077 40.0663 19.8074 40.7966C20.5377 41.5269 21.4682 42.0243 22.4813 42.2258C23.4943 42.4273 24.5443 42.3239 25.4985 41.9286C26.4528 41.5334 27.2684 40.864 27.8422 40.0052C28.416 39.1465 28.7223 38.1368 28.7223 37.1039C28.7223 35.7189 28.1721 34.3906 27.1927 33.4113C26.2134 32.4319 24.8851 31.8817 23.5001 31.8817ZM23.5001 39.715C22.9836 39.715 22.4788 39.5619 22.0494 39.275C21.62 38.9881 21.2853 38.5803 21.0877 38.1032C20.8901 37.626 20.8384 37.101 20.9391 36.5945C21.0399 36.088 21.2886 35.6228 21.6537 35.2576C22.0189 34.8924 22.4841 34.6437 22.9907 34.543C23.4972 34.4422 24.0222 34.494 24.4993 34.6916C24.9764 34.8892 25.3842 35.2239 25.6711 35.6533C25.958 36.0827 26.1112 36.5875 26.1112 37.1039C26.1112 37.7964 25.8361 38.4606 25.3464 38.9503C24.8567 39.4399 24.1926 39.715 23.5001 39.715Z" fill="white"/>
</g>
<defs>
<clipPath id="clip0_715_1249">
<rect width="47" height="47" fill="white"/>
</clipPath>
</defs>
</svg>
