<?xml version="1.0" encoding="UTF-8"?>
<svg id="Layer_2" data-name="Layer 2" xmlns="http://www.w3.org/2000/svg" viewBox="0 0 685.55 357.26">
  <defs>
    <style>
      .cls-1 {
        opacity: .68;
      }

      .cls-2 {
        opacity: .41;
      }

      .cls-2, .cls-3, .cls-4, .cls-5, .cls-6, .cls-7, .cls-8, .cls-9, .cls-10, .cls-11, .cls-12, .cls-13, .cls-14, .cls-15, .cls-16, .cls-17, .cls-18, .cls-19 {
        stroke-width: 0px;
      }

      .cls-2, .cls-10, .cls-16 {
        fill: #9fbfff;
      }

      .cls-3 {
        fill: #4e69ff;
      }

      .cls-4 {
        fill: #17014c;
      }

      .cls-5 {
        fill: #ffb54a;
      }

      .cls-6 {
        opacity: .18;
      }

      .cls-6, .cls-12, .cls-14, .cls-19 {
        fill: #ff887c;
      }

      .cls-7 {
        fill: none;
      }

      .cls-8 {
        fill: #fec29e;
      }

      .cls-9 {
        fill: #fcf0e3;
      }

      .cls-10, .cls-20 {
        opacity: .47;
      }

      .cls-11 {
        opacity: .05;
      }

      .cls-11, .cls-13, .cls-15 {
        fill: #1b1b25;
      }

      .cls-12 {
        opacity: .08;
      }

      .cls-14 {
        opacity: .17;
      }

      .cls-15 {
        opacity: .35;
      }

      .cls-21 {
        opacity: .43;
      }

      .cls-17 {
        fill: #fb8e77;
      }

      .cls-18 {
        fill: #fff;
      }

      .cls-19 {
        opacity: .32;
      }
    </style>
  </defs>
  <g id="OBJECTS">
    <g>
      <g>
        <g>
          <g class="cls-1">
            <path class="cls-10" d="M610.84,167.8c-2.72-27.03-15.8-54.1-38.45-73.45-35.3-30.15-88.7-37.75-135.5-30.78-19.6,2.92-39.04,8.09-59.11,6.46-29.27-2.37-55.06-18.65-81.71-30.57-36.28-16.24-77.87-24.98-116.44-17.91-43.73,8.01-79.59,38.27-83.87,78.42-1.94,18.19,17.76,50.24,11.54,67.48-6.31,17.49-52.35,71.05-51.21,111.79,1.13,40.59,11.73,53.21,26.72,73.84h489.3c9.33-20.9,16.64-37.62,5.72-65.07-8.73-21.93,14.98-39.99,24.16-60.41,8.17-18.17,10.85-40.02,8.86-59.81Z"/>
          </g>
          <path class="cls-2" d="M4.07,171.88c-9.33-18.27-2.08-40.64,16.19-49.97,18.27-9.33,53.33-8.56,62.66,9.71,9.33,18.27-18.79,33.87-30.28,50.86-16.02,23.7-39.24,7.67-48.57-10.6Z"/>
          <path class="cls-2" d="M645.5,242.59c8.94,9.68,9.66,23.55,1.62,30.96-8.04,7.42-27.38,10.73-36.32,1.05-8.94-9.68,3.18-21.83,5.9-33,3.8-15.58,19.86-8.7,28.8.99Z"/>
          <path class="cls-2" d="M570.27,24.68c10.37-5.47,23.21-1.5,28.68,8.86,5.47,10.37,5.31,30.41-5.06,35.88-10.37,5.47-19.5-10.47-29.3-16.91-13.67-8.97-4.69-22.36,5.68-27.83Z"/>
        </g>
        <g class="cls-21">
          <path class="cls-16" d="M556.86,329.17c4.77-23.7-2.88-43.93-4.78-67.17-1.8-22.01,6.01-40.51,10.35-61.47,3.86-18.65,2.57-39.78-2.27-58.11-6.61-25.03-21.85-48.21-43.79-62.34-34.19-22.02-79.8-19.42-117.57-4.28-15.82,6.34-31.14,14.78-48.09,16.92-24.71,3.11-48.76-7.54-72.84-13.93-32.77-8.7-68.74-9.34-99.66,4.39-35.06,15.57-59.98,50.71-57.07,89.41,1.32,17.54,8.07,34.84,5.68,52.26-2.42,17.67-12.92,32.45-18.48,49.09-7.58,22.71-8.27,56.09,3.92,79.14h436.39c3.76-7.54,6.54-15.61,8.21-23.91Z"/>
        </g>
        <g class="cls-20">
          <path class="cls-16" d="M475.71,254.9c-1.39-14.32-8.09-28.67-19.7-38.92-18.09-15.97-45.44-20-69.42-16.31-10.04,1.55-20,4.29-30.29,3.42-15-1.26-28.21-9.88-41.86-16.2-18.59-8.6-39.89-13.23-59.66-9.49-22.41,4.24-40.78,20.28-42.97,41.55-.99,9.64,9.1,26.62,5.91,35.76-3.23,9.27-26.82,37.65-26.24,59.23.58,21.51,6.01,28.2,13.69,39.13h250.68c4.78-11.08,8.53-19.93,2.93-34.48-4.47-11.62,7.68-21.19,12.38-32.01,4.18-9.63,5.56-21.2,4.54-31.69Z"/>
        </g>
      </g>
      <path class="cls-16" d="M679.48,356.22H29.35c-.87,0-1.58-.71-1.58-1.58h0c0-.87.71-1.58,1.58-1.58h650.13c.87,0,1.58.71,1.58,1.58h0c0,.87-.71,1.58-1.58,1.58Z"/>
      <circle class="cls-4" cx="654.68" cy="206.58" r="4.5"/>
      <circle class="cls-3" cx="622.68" cy="331.58" r="3.5"/>
      <circle class="cls-3" cx="79.68" cy="50.58" r="4.5"/>
      <path class="cls-4" d="M37.33,318.51c0,2.64-2.14,4.78-4.78,4.78s-4.78-2.14-4.78-4.78,2.14-4.78,4.78-4.78,4.78,2.14,4.78,4.78Z"/>
      <circle class="cls-4" cx="50.68" cy="72.58" r="1.5"/>
      <path class="cls-3" d="M434.19,14.53c-1.39,6.49-7.77,10.63-14.26,9.24-6.49-1.39-10.63-7.77-9.24-14.26,1.39-6.49,7.77-10.63,14.26-9.24,6.49,1.39,10.63,7.77,9.24,14.26Z"/>
      <path class="cls-5" d="M623.69,32.53c-.42,1.97-2.36,3.23-4.33,2.81s-3.23-2.36-2.81-4.33c.42-1.97,2.36-3.23,4.33-2.81,1.97.42,3.23,2.36,2.81,4.33Z"/>
      <path class="cls-5" d="M153.82,9.31c-.42,1.97-2.36,3.23-4.33,2.81-1.97-.42-3.23-2.36-2.81-4.33.42-1.97,2.36-3.23,4.33-2.81,1.97.42,3.23,2.36,2.81,4.33Z"/>
      <path class="cls-3" d="M653.75,114.67c-.42,1.97-2.36,3.23-4.33,2.81-1.97-.42-3.23-2.36-2.81-4.33.42-1.97,2.36-3.23,4.33-2.81,1.97.42,3.23,2.36,2.81,4.33Z"/>
      <path class="cls-4" d="M391.1,25.96c-.33,1.55-1.85,2.53-3.4,2.2-1.55-.33-2.53-1.85-2.2-3.4.33-1.55,1.85-2.53,3.4-2.2,1.55.33,2.53,1.85,2.2,3.4Z"/>
      <g>
        <g>
          <circle class="cls-13" cx="345.21" cy="84.61" r="57.47"/>
          <circle class="cls-5" cx="339.15" cy="78.55" r="57.47"/>
          <path class="cls-9" d="M339.15,124.95c-25.52,0-46.29-20.76-46.29-46.29s20.76-46.29,46.29-46.29,46.29,20.76,46.29,46.29-20.76,46.29-46.29,46.29ZM339.15,35.38c-23.87,0-43.29,19.42-43.29,43.29s19.42,43.29,43.29,43.29,43.29-19.42,43.29-43.29-19.42-43.29-43.29-43.29Z"/>
          <path class="cls-13" d="M335.77,99.41c-2.89-.36-5.67-1.08-8.36-2.17-2.69-1.09-5.14-2.48-7.36-4.16l5.2-7.59c1.82,1.38,3.59,2.52,5.3,3.43,1.71.91,3.56,1.57,5.56,1.96v-10.59c-2.4-.67-4.5-1.4-6.29-2.2-1.8-.8-3.29-1.75-4.46-2.86-1.18-1.11-2.06-2.41-2.66-3.9-.6-1.49-.9-3.21-.9-5.16v-.13c0-1.86.33-3.55,1-5.06.67-1.51,1.61-2.82,2.83-3.93,1.22-1.11,2.7-2.01,4.43-2.7,1.73-.69,3.64-1.14,5.73-1.37v-3.86h6.93v4c2.4.36,4.61.94,6.63,1.77,2.02.82,3.94,1.88,5.76,3.16l-4.46,7.79c-1.33-.89-2.69-1.68-4.06-2.36-1.38-.69-2.78-1.21-4.2-1.57v10.06c5.06,1.38,8.74,3.18,11.02,5.4,2.29,2.22,3.43,5.2,3.43,8.93v.13c0,1.87-.34,3.55-1.03,5.06-.69,1.51-1.64,2.82-2.87,3.93-1.22,1.11-2.7,2.02-4.43,2.73-1.73.71-3.66,1.18-5.79,1.4v6.59h-6.93v-6.73ZM336.1,61.31c-1.6.22-2.76.7-3.5,1.43-.73.73-1.1,1.63-1.1,2.7v.13c0,1.02.31,1.9.93,2.63.62.73,1.84,1.43,3.66,2.1v-8.99ZM342.36,91.22c3.15-.49,4.73-1.91,4.73-4.26v-.13c0-1.15-.33-2.1-1-2.83-.67-.73-1.91-1.43-3.73-2.1v9.33Z"/>
        </g>
        <g>
          <circle class="cls-13" cx="345.21" cy="84.61" r="57.47"/>
          <circle class="cls-5" cx="339.15" cy="78.55" r="57.47"/>
          <path class="cls-9" d="M339.15,124.95c-25.52,0-46.29-20.76-46.29-46.29s20.76-46.29,46.29-46.29,46.29,20.76,46.29,46.29-20.76,46.29-46.29,46.29ZM339.15,35.38c-23.87,0-43.29,19.42-43.29,43.29s19.42,43.29,43.29,43.29,43.29-19.42,43.29-43.29-19.42-43.29-43.29-43.29Z"/>
          <path class="cls-13" d="M335.77,99.41c-2.89-.36-5.67-1.08-8.36-2.17-2.69-1.09-5.14-2.48-7.36-4.16l5.2-7.59c1.82,1.38,3.59,2.52,5.3,3.43,1.71.91,3.56,1.57,5.56,1.96v-10.59c-2.4-.67-4.5-1.4-6.29-2.2-1.8-.8-3.29-1.75-4.46-2.86-1.18-1.11-2.06-2.41-2.66-3.9-.6-1.49-.9-3.21-.9-5.16v-.13c0-1.86.33-3.55,1-5.06.67-1.51,1.61-2.82,2.83-3.93,1.22-1.11,2.7-2.01,4.43-2.7,1.73-.69,3.64-1.14,5.73-1.37v-3.86h6.93v4c2.4.36,4.61.94,6.63,1.77,2.02.82,3.94,1.88,5.76,3.16l-4.46,7.79c-1.33-.89-2.69-1.68-4.06-2.36-1.38-.69-2.78-1.21-4.2-1.57v10.06c5.06,1.38,8.74,3.18,11.02,5.4,2.29,2.22,3.43,5.2,3.43,8.93v.13c0,1.87-.34,3.55-1.03,5.06-.69,1.51-1.64,2.82-2.87,3.93-1.22,1.11-2.7,2.02-4.43,2.73-1.73.71-3.66,1.18-5.79,1.4v6.59h-6.93v-6.73ZM336.1,61.31c-1.6.22-2.76.7-3.5,1.43-.73.73-1.1,1.63-1.1,2.7v.13c0,1.02.31,1.9.93,2.63.62.73,1.84,1.43,3.66,2.1v-8.99ZM342.36,91.22c3.15-.49,4.73-1.91,4.73-4.26v-.13c0-1.15-.33-2.1-1-2.83-.67-.73-1.91-1.43-3.73-2.1v9.33Z"/>
        </g>
        <g>
          <circle class="cls-13" cx="281.89" cy="51.95" r="26"/>
          <circle class="cls-5" cx="279.15" cy="49.21" r="26"/>
          <path class="cls-9" d="M279.15,70.21c-11.55,0-20.94-9.4-20.94-20.94s9.4-20.94,20.94-20.94,20.94,9.4,20.94,20.94-9.4,20.94-20.94,20.94ZM279.15,29.68c-10.8,0-19.59,8.79-19.59,19.59s8.79,19.59,19.59,19.59,19.59-8.79,19.59-19.59-8.79-19.59-19.59-19.59Z"/>
          <path class="cls-13" d="M277.62,58.65c-1.31-.16-2.57-.49-3.78-.98-1.22-.49-2.33-1.12-3.33-1.88l2.35-3.44c.82.62,1.62,1.14,2.4,1.55.77.41,1.61.71,2.52.89v-4.79c-1.08-.3-2.03-.63-2.85-1-.81-.36-1.49-.79-2.02-1.3-.53-.5-.93-1.09-1.21-1.76-.27-.67-.41-1.45-.41-2.34v-.06c0-.84.15-1.61.45-2.29.3-.68.73-1.28,1.28-1.78.55-.5,1.22-.91,2-1.22.78-.31,1.65-.52,2.59-.62v-1.75h3.13v1.81c1.08.16,2.08.43,3,.8.91.37,1.78.85,2.61,1.43l-2.02,3.53c-.6-.4-1.22-.76-1.84-1.07-.62-.31-1.26-.55-1.9-.71v4.55c2.29.62,3.95,1.44,4.99,2.44,1.03,1.01,1.55,2.35,1.55,4.04v.06c0,.84-.16,1.61-.47,2.29-.31.68-.74,1.28-1.3,1.78-.55.5-1.22.91-2,1.24-.78.32-1.66.53-2.62.63v2.98h-3.13v-3.04ZM277.77,41.41c-.72.1-1.25.32-1.58.65-.33.33-.5.74-.5,1.22v.06c0,.46.14.86.42,1.19.28.33.83.65,1.66.95v-4.07ZM280.6,54.94c1.43-.22,2.14-.86,2.14-1.93v-.06c0-.52-.15-.95-.45-1.28-.3-.33-.86-.65-1.69-.95v4.22Z"/>
        </g>
        <path class="cls-18" d="M249.78,95.91h0c0-6.24-5.06-11.29-11.29-11.29h0c6.24,0,11.29-5.06,11.29-11.29h0c0,6.24,5.06,11.29,11.29,11.29h0c-6.24,0-11.29,5.06-11.29,11.29Z"/>
        <path class="cls-18" d="M382.44,152.68h0c0-4.58-3.71-8.29-8.29-8.29h0c4.58,0,8.29-3.71,8.29-8.29h0c0,4.58,3.71,8.29,8.29,8.29h0c-4.58,0-8.29,3.71-8.29,8.29Z"/>
        <path class="cls-18" d="M328.23,192.62h0c0-8.42-6.83-15.25-15.25-15.25h0c8.42,0,15.25-6.83,15.25-15.25h0c0,8.42,6.83,15.25,15.25,15.25h0c-8.42,0-15.25,6.83-15.25,15.25Z"/>
        <path class="cls-9" d="M380.88,74.96h0c0-7.89-6.4-14.29-14.29-14.29h0c7.89,0,14.29-6.4,14.29-14.29h0c0,7.89,6.4,14.29,14.29,14.29h0c-7.89,0-14.29,6.4-14.29,14.29Z"/>
        <path class="cls-18" d="M428.65,84.61h0c0-4.35-3.53-7.88-7.88-7.88h0c4.35,0,7.88-3.53,7.88-7.88h0c0,4.35,3.53,7.88,7.88,7.88h0c-4.35,0-7.88,3.53-7.88,7.88Z"/>
      </g>
      <g>
        <path class="cls-3" d="M187.1,58.31h-87.8c-9.03,0-16.35,7.32-16.35,16.35s7.32,16.35,16.35,16.35h72.36l9.95,9.07v-9.07h5.49c9.03,0,16.35-7.32,16.35-16.35s-7.32-16.35-16.35-16.35Z"/>
        <path class="cls-5" d="M107.22,72.41c1.14-.95,1.87-2.38,1.87-3.99,0-2.86-2.32-5.18-5.18-5.18s-5.18,2.32-5.18,5.18c0,1.6.73,3.04,1.87,3.99-3.68,1.35-6.3,4.87-6.3,9.02,0,5.31,19.23,5.31,19.23,0,0-4.14-2.63-7.67-6.3-9.02Z"/>
        <g>
          <path class="cls-18" d="M188.2,67.1h-62.91c-.28,0-.5-.22-.5-.5s.22-.5.5-.5h62.91c.28,0,.5.22.5.5s-.22.5-.5.5Z"/>
          <path class="cls-18" d="M178.44,81.86h-53.15c-.28,0-.5-.22-.5-.5s.22-.5.5-.5h53.15c.28,0,.5.22.5.5s-.22.5-.5.5Z"/>
          <path class="cls-18" d="M163.96,74.95h-38.68c-.28,0-.5-.22-.5-.5s.22-.5.5-.5h38.68c.28,0,.5.22.5.5s-.22.5-.5.5Z"/>
          <path class="cls-18" d="M188.2,74.95h-19.41c-.28,0-.5-.22-.5-.5s.22-.5.5-.5h19.41c.28,0,.5.22.5.5s-.22.5-.5.5Z"/>
        </g>
        <path class="cls-18" d="M110.13,79.93c-.38,0-.77-.15-1.06-.44l-3.77-3.77c-.59-.59-.59-1.54,0-2.12.59-.59,1.54-.59,2.12,0l2.71,2.71,7.27-7.27c.59-.59,1.54-.59,2.12,0,.59.59.59,1.54,0,2.12l-8.33,8.34c-.29.29-.68.44-1.06.44Z"/>
        <g>
          <path class="cls-5" d="M578.69,143.46h90.08c9.26,0,16.78,7.51,16.78,16.78s-7.51,16.78-16.78,16.78h-74.24l-10.21,9.31v-9.31h-5.63c-9.26,0-16.78-7.51-16.78-16.78s7.51-16.78,16.78-16.78Z"/>
          <g>
            <path class="cls-3" d="M666.75,157.77c1.14-.95,1.87-2.38,1.87-3.99,0-2.86-2.32-5.18-5.18-5.18s-5.18,2.32-5.18,5.18c0,1.6.73,3.04,1.87,3.99-3.68,1.35-6.3,4.87-6.3,9.02,0,5.31,19.23,5.31,19.23,0,0-4.14-2.63-7.67-6.3-9.02Z"/>
            <path class="cls-18" d="M674.65,160.66h-2.48v-2.48c0-.27-.22-.49-.49-.49h-2.27c-.27,0-.49.22-.49.49v2.48h-2.48c-.27,0-.49.22-.49.49v2.27c0,.27.22.49.49.49h2.48v2.48c0,.27.22.49.49.49h2.27c.27,0,.49-.22.49-.49v-2.48h2.48c.27,0,.49-.22.49-.49v-2.27c0-.27-.22-.49-.49-.49Z"/>
          </g>
          <g>
            <path class="cls-18" d="M645.96,153.47h-62.91c-.28,0-.5-.22-.5-.5s.22-.5.5-.5h62.91c.28,0,.5.22.5.5s-.22.5-.5.5Z"/>
            <path class="cls-18" d="M636.2,168.23h-53.15c-.28,0-.5-.22-.5-.5s.22-.5.5-.5h53.15c.28,0,.5.22.5.5s-.22.5-.5.5Z"/>
            <path class="cls-18" d="M621.73,161.31h-38.68c-.28,0-.5-.22-.5-.5s.22-.5.5-.5h38.68c.28,0,.5.22.5.5s-.22.5-.5.5Z"/>
            <path class="cls-18" d="M645.96,161.31h-19.41c-.28,0-.5-.22-.5-.5s.22-.5.5-.5h19.41c.28,0,.5.22.5.5s-.22.5-.5.5Z"/>
          </g>
        </g>
        <g>
          <path class="cls-3" d="M465.46,46.76h62.05c6.38,0,11.56,5.17,11.56,11.56s-5.17,11.56-11.56,11.56h-62.05c-6.38,0-11.56-5.17-11.56-11.56s5.17-11.56,11.56-11.56Z"/>
          <g>
            <path class="cls-18" d="M520.51,54.51h-48.11c-.28,0-.5-.22-.5-.5s.22-.5.5-.5h48.11c.28,0,.5.22.5.5s-.22.5-.5.5Z"/>
            <path class="cls-18" d="M513.04,63.25h-40.65c-.28,0-.5-.22-.5-.5s.22-.5.5-.5h40.65c.28,0,.5.22.5.5s-.22.5-.5.5Z"/>
            <path class="cls-18" d="M501.97,59.16h-29.58c-.28,0-.5-.22-.5-.5s.22-.5.5-.5h29.58c.28,0,.5.22.5.5s-.22.5-.5.5Z"/>
            <path class="cls-18" d="M520.51,59.16h-14.84c-.28,0-.5-.22-.5-.5s.22-.5.5-.5h14.84c.28,0,.5.22.5.5s-.22.5-.5.5Z"/>
          </g>
        </g>
        <g>
          <path class="cls-5" d="M44.88,210.59h55.18c5.67,0,10.28,4.6,10.28,10.28s-4.6,10.28-10.28,10.28h-55.18c-5.67,0-10.28-4.6-10.28-10.28s4.6-10.28,10.28-10.28Z"/>
          <g>
            <path class="cls-18" d="M93.83,217.54h-42.78c-.28,0-.5-.22-.5-.5s.22-.5.5-.5h42.78c.28,0,.5.22.5.5s-.22.5-.5.5Z"/>
            <path class="cls-18" d="M87.19,225.31h-36.14c-.28,0-.5-.22-.5-.5s.22-.5.5-.5h36.14c.28,0,.5.22.5.5s-.22.5-.5.5Z"/>
            <path class="cls-18" d="M77.35,221.67h-26.3c-.28,0-.5-.22-.5-.5s.22-.5.5-.5h26.3c.28,0,.5.22.5.5s-.22.5-.5.5Z"/>
            <path class="cls-18" d="M93.83,221.67h-13.2c-.28,0-.5-.22-.5-.5s.22-.5.5-.5h13.2c.28,0,.5.22.5.5s-.22.5-.5.5Z"/>
          </g>
        </g>
      </g>
      <g>
        <g>
          <path class="cls-18" d="M452.7,266.15h-98.04c-.28,0-.5-.22-.5-.5s.22-.5.5-.5h98.04c.28,0,.5.22.5.5s-.22.5-.5.5Z"/>
          <path class="cls-18" d="M452.7,289.15h-82.83c-.28,0-.5-.22-.5-.5s.22-.5.5-.5h82.83c.28,0,.5.22.5.5s-.22.5-.5.5Z"/>
          <path class="cls-18" d="M452.7,278.38h-60.27c-.28,0-.5-.22-.5-.5s.22-.5.5-.5h60.27c.28,0,.5.22.5.5s-.22.5-.5.5Z"/>
          <path class="cls-18" d="M384.91,278.38h-30.25c-.28,0-.5-.22-.5-.5s.22-.5.5-.5h30.25c.28,0,.5.22.5.5s-.22.5-.5.5Z"/>
        </g>
        <g>
          <path class="cls-18" d="M341.82,302.64h-98.04c-.28,0-.5-.22-.5-.5s.22-.5.5-.5h98.04c.28,0,.5.22.5.5s-.22.5-.5.5Z"/>
          <path class="cls-18" d="M326.61,325.64h-82.83c-.28,0-.5-.22-.5-.5s.22-.5.5-.5h82.83c.28,0,.5.22.5.5s-.22.5-.5.5Z"/>
          <path class="cls-18" d="M304.05,314.87h-60.27c-.28,0-.5-.22-.5-.5s.22-.5.5-.5h60.27c.28,0,.5.22.5.5s-.22.5-.5.5Z"/>
          <path class="cls-18" d="M341.82,314.87h-30.25c-.28,0-.5-.22-.5-.5s.22-.5.5-.5h30.25c.28,0,.5.22.5.5s-.22.5-.5.5Z"/>
        </g>
      </g>
      <g>
        <g>
          <g>
            <path class="cls-8" d="M415.73,209.73l.03-.11,14.48-50.37-.06-.05c.65-1.27,2.34-4.01,5.79-6.42,5.97-4.16,6.68-11.06,6.68-11.06,3.19-3.08,6.78-5.72,10.03-8.73.34-.31.69-.66.79-1.11.11-.5-.12-1.02-.41-1.45-1.68-2.49-4.77-2.85-7.33-1.7-1.5.67-2.85,1.63-4.11,2.68-.6.5-2.64,1.87-3.26,2.79l11.52-24.59c1.02-2.18.35-4.68-1.49-5.54h0c-.92-.43-1.97-.38-2.91.06-.6.28-1.14.72-1.6,1.28.04-.18.06-.29.06-.29-13.49-11.34-30.13,27.26-30.13,27.26l-4.72,11.15-40.06,74.28c-5.66,10.78-1.3,24.1,9.65,29.44h0c.16.08.32.14.48.22,3.21,1.85,6.94,2.92,10.91,2.92h78.84l16.99-40.38-70.16-.28ZM438.19,134.58h0s0,0,0,0h0Z"/>
            <g>
              <path class="cls-7" d="M413.47,217.6l-2.02,7.02c.73-2.43,1.42-4.81,2.02-7.02Z"/>
              <path class="cls-14" d="M402.23,250.37c-2.56-.08-1.01-.03,0,0h0Z"/>
              <path class="cls-14" d="M402.24,250.37c.36.01.65.02.65.02-.24,0-.45-.01-.65-.02Z"/>
              <path class="cls-14" d="M415.77,209.62l-2.29,7.98c-.6,2.21-1.28,4.59-2.02,7.02l-2.77,9.64c-.38,1.24-.87,2.41-1.44,3.52-2.39,7.14-4.35,12.61-4.35,12.61l28.35-40.6c-7.05,0-8.67-.17-15.48-.18Z"/>
              <path class="cls-14" d="M402.23,250.37s0,0,.01,0c0,0,0,0-.01,0Z"/>
            </g>
            <path class="cls-17" d="M427.18,136.72c-.1,0-.21-.03-.3-.1-.22-.16-.27-.48-.11-.7,5.03-6.82,11.8-3.14,11.86-3.1.24.14.33.44.19.68-.13.24-.44.33-.68.19-.25-.14-6.07-3.28-10.57,2.82-.1.13-.25.2-.4.2Z"/>
            <path class="cls-17" d="M444.17,105.32c-2.08,2.62-4.01,5.37-5.73,8.24-.85,1.43-1.63,2.91-2.27,4.43-.64,1.51-1.15,3.13-1.07,4.65v.03c.02.28-.19.51-.47.53s-.51-.2-.53-.47c0,0,0,0,0-.01-.05-1.86.56-3.52,1.24-5.08.7-1.56,1.52-3.05,2.42-4.49,1.8-2.87,3.79-5.6,5.95-8.2.1-.13.29-.14.42-.04.13.1.14.29.04.41h0Z"/>
            <path class="cls-17" d="M440.7,103.89c-1.32.91-2.5,2.11-3.56,3.36-1.06,1.26-1.99,2.63-2.83,4.05-.82,1.43-1.55,2.92-2.16,4.45-.33.76-.57,1.55-.86,2.32l-.72,2.37v.03c-.09.26-.37.41-.63.33s-.41-.36-.33-.62c0,0,0,0,0,0l.78-2.41c.31-.79.58-1.59.92-2.36.66-1.56,1.43-3.07,2.3-4.52.89-1.44,1.87-2.83,2.98-4.11,1.13-1.27,2.33-2.46,3.78-3.43.14-.09.34-.06.43.09.09.14.06.33-.08.43l-.02.02Z"/>
            <path class="cls-17" d="M435.24,104.28c-1.91,2-3.7,4.17-5.24,6.47-.76,1.16-1.49,2.34-2.06,3.58-.58,1.24-1.05,2.53-1.26,3.84h0c-.04.28-.3.47-.57.43s-.46-.3-.42-.57c0,0,0,0,0-.01.27-1.45.81-2.8,1.44-4.08.63-1.28,1.41-2.47,2.22-3.64,1.63-2.31,3.48-4.44,5.48-6.44.11-.11.3-.11.41,0,.11.11.11.29,0,.41h0Z"/>
          </g>
          <path class="cls-3" d="M597.69,283.07l-19.34-52.72c-2.3-11.57-13.31-20.34-26.55-20.34l-54.02-.43-60.86.23v40.57h18.89l-9.75,105.83,134.02.76-.75-71.66,18.36-2.25Z"/>
          <path class="cls-11" d="M497.68,210.04l.11-.45-60.86.23v40.57h18.89l.1-1.07c0-21.41,18.62-38.81,41.77-39.28Z"/>
          <path class="cls-6" d="M420.77,151.32s3.42,29.01,3.62,28.32c.2-.7,5.86-20.39,5.86-20.39l-9.48-7.93Z"/>
        </g>
        <g>
          <path class="cls-13" d="M500.54,298.21l-5.11-25.78-3.95-19.89c-.46-2.34-2.76-3.87-5.1-3.41l-19.76,3.92c-2.34.46-3.87,2.76-3.41,5.1l3.97,20.02,3.15,15.88,1.94,9.77c.46,2.34,2.76,3.87,5.1,3.41l11.67-2.32,8.09-1.6c2.34-.46,3.87-2.76,3.41-5.1Z"/>
          <g>
            <path class="cls-8" d="M605.7,321.97l-8.91-38.79-40.5,4.96,2.22,9.87-.21-.05-44.03-10.9-.04.05c-1.21-.61-3.5-2.06-5.51-5.06-3.69-5.52-9.89-5.67-9.89-5.67-1.19-1.25-2.31-2.59-3.41-3.94l1.03,5.2-.26.14c-2.8,1.48-5.96,2.14-9.12,1.89-5.84-.46-15.39-1.2-19.36-1.51-1.21-.09-2.37.55-2.9,1.65-5.67,11.91,18.66,22.81,24.22,25.11h0c.07.03.13.05.2.08.08.03.16.06.23.09.08.03.14.06.21.09.06.03.13.05.18.07.07.03.12.05.17.07.02,0,.05.02.06.03.05.02.08.03.08.03l9.52,3.57,75.38,37.11c.7.34,1.41.63,2.12.88,3.66,1.67,7.86,2.22,12.08,1.25h0c11.77-2.7,19.12-14.44,16.42-26.2Z"/>
            <path class="cls-14" d="M602.83,309.46l-46.54-21.33c1.55,6.77.65,3.78,2.02,9.82l3.17.78c13.4.9,41.36,10.73,41.36,10.73Z"/>
          </g>
          <path class="cls-15" d="M552.53,288.63c-.23,0-.44-.16-.49-.4l-5.82-28.17c-.06-.27.12-.54.39-.59.26-.06.54.12.59.39l5.72,27.71,19.58-2.49c.27-.04.52.16.56.43.04.27-.16.52-.43.56l-20.04,2.55s-.04,0-.06,0Z"/>
        </g>
        <g>
          <path class="cls-14" d="M603.14,311.07c.04.19.07.34.08.4,0-.04-.03-.17-.08-.4Z"/>
          <path class="cls-14" d="M603.22,311.47s0,.03,0,0h0Z"/>
          <path class="cls-14" d="M602.83,309.46s.11.54.21,1.07c-.06-.28-.12-.62-.21-1.07Z"/>
          <path class="cls-14" d="M603.04,310.53c.04.22.08.4.11.53-.03-.16-.07-.34-.11-.53Z"/>
        </g>
        <g>
          <g>
            <path class="cls-13" d="M547.94,105.57c-1.23-8.49-8.98-14.53-17.57-13.56-2.28.26-4.39.99-6.25,2.08-2.76-4.52-7.97-7.29-13.58-6.66-3.21.36-6.03,1.79-8.18,3.87-3.1-1.55-6.66-2.27-10.36-1.85-10.17,1.15-17.48,10.33-16.33,20.49.54,4.76,2.84,8.88,6.17,11.81l-3.77,20.12c-1.08,5.78,2.72,11.33,8.5,12.41l44.62,8.35c5.78,1.08,11.33-2.72,12.41-8.5l7.31-39.05c.67-3.6-.55-7.12-2.98-9.52Z"/>
            <path class="cls-9" d="M482.9,116.58c-.17,0-.33-.08-.42-.23-7.97-12.61,3.01-20.7,3.12-20.78.22-.16.54-.11.7.11.16.22.11.54-.11.7-.42.31-10.32,7.63-2.86,19.44.15.23.08.54-.16.69-.08.05-.18.08-.27.08Z"/>
          </g>
          <g>
            <path class="cls-8" d="M540.72,145.01l-.98-.18-9.85-21.17c-2.42-.35-4.7-1.24-6.66-2.58-1.89,2.05-4.49,3.46-7.47,3.79-3.59.41-6.99-.82-9.46-3.08-2.75,2.41-6.22,4.05-10.13,4.49-4.47.51-8.75-.63-12.23-2.91l-6.86,36.65c-.95,5.06.09,10.03,2.54,14.13,2.44,6.03,7.68,10.77,14.43,12.32v24.21c0,8.41,6.88,15.29,15.29,15.29h4.82c8.41,0,15.29-6.88,15.29-15.29v-27.48c2.48-2.72,4.27-6.13,5-10.02l1.25-6.69.98.18c5.79,1.08,11.42-2.77,12.5-8.56l.11-.59c1.08-5.79-2.77-11.42-8.56-12.5Z"/>
            <path class="cls-19" d="M533.42,165.63l-.89,4.77c-2.06,11.02-12.66,18.27-23.68,16.21l-15.57-2.92c-5.95-1.11-10.79-4.73-13.67-9.55,2.54,6.28,8.11,11.18,15.26,12.52l.62.12c2.47,5.13,7.72,8.7,13.76,8.7h4.88c7.21,0,13.29-5.07,14.87-11.82,2.71-2.8,4.65-6.38,5.42-10.49l1.25-6.69-2.27-.85Z"/>
          </g>
          <g>
            <path class="cls-17" d="M541.58,159.37c-.11,0-.22-.03-.31-.11l-3.89-3.02c-.12-.09-.19-.23-.19-.37,0-.15.05-.29.16-.39l4.8-4.53c.2-.19.52-.18.71.02.19.2.18.52-.02.71l-4.37,4.13,3.43,2.66c.22.17.26.48.09.7-.1.13-.25.19-.39.19Z"/>
            <g>
              <g>
                <path class="cls-13" d="M516.83,140.76c-.75-.02-1.52-.48-2.3-.87-.77-.42-1.55-.81-2.25-1.14-.69-.32-1.5-.67-2.32-.99-.8-.34-1.65-.64-2.14-1.2-.48-.53-.38-1.36.73-1.92,1.06-.55,3.23-.69,5.53.38,2.29,1.07,3.56,2.81,3.79,3.97.26,1.2-.34,1.8-1.06,1.77Z"/>
                <path class="cls-13" d="M485.02,138.02c.65.36,1.54.41,2.41.5.87.08,1.74.17,2.5.28.76.11,1.63.25,2.48.42.86.15,1.73.35,2.44.18.68-.15,1.04-.82.39-1.78-.61-.94-2.38-2.11-4.89-2.47-2.51-.35-4.49.3-5.3,1.04-.86.76-.66,1.5-.04,1.83Z"/>
              </g>
              <rect class="cls-13" x="508.62" y="145.27" width="2.54" height="4.09" rx="1.24" ry="1.24" transform="translate(983.94 385.98) rotate(-169.39)"/>
              <rect class="cls-13" x="487.06" y="141.76" width="2.54" height="4.09" rx="1.24" ry="1.24" transform="translate(941.84 375.08) rotate(-169.39)"/>
              <path class="cls-14" d="M510.53,152.15h4.45c.85,0,1.53.69,1.53,1.53v.09c0,.85-.69,1.53-1.53,1.53h-4.45c-.85,0-1.53-.69-1.53-1.53v-.09c0-.85.69-1.53,1.53-1.53Z" transform="translate(1005.12 363.8) rotate(-173.58)"/>
              <path class="cls-14" d="M481.35,147.55h4.45c.85,0,1.53.69,1.53,1.53v.09c0,.85-.69,1.53-1.53,1.53h-4.45c-.85,0-1.53-.69-1.53-1.53v-.09c0-.85.69-1.53,1.53-1.53Z" transform="translate(947.45 351.37) rotate(-173.58)"/>
              <path class="cls-17" d="M494.08,173.08c-.15,0-.31-.07-.4-.21-.16-.22-.11-.54.11-.7,2.1-1.53,4.44-.67,5.39,0,.23.16.28.47.12.69-.16.23-.47.28-.7.12-.09-.06-2.2-1.49-4.23,0-.09.06-.19.1-.29.1Z"/>
              <path class="cls-18" d="M497.46,158.87l11.69-1.67-1.28,4.06c-.82,2.6-3.23,4.37-5.96,4.37h0c-2.12,0-3.9-1.6-4.13-3.71l-.33-3.05Z"/>
              <path class="cls-17" d="M500.49,154.72s-.08,0-.13-.02l-3.63-.94c-1.54-.4-2.78-1.47-3.4-2.93-.62-1.46-.54-3.1.23-4.48l5.52-9.94c.14-.24.44-.33.68-.19.24.13.33.44.19.68l-5.52,9.94c-.62,1.12-.69,2.43-.18,3.61.5,1.17,1.5,2.03,2.74,2.35l3.63.94c.27.07.43.34.36.61-.06.23-.26.37-.48.37Z"/>
            </g>
          </g>
        </g>
      </g>
      <g>
        <g>
          <g>
            <path class="cls-8" d="M330.67,226.62l-40.06-74.28-4.72-11.15s-16.64-38.61-30.13-27.26c0,0,.02.11.06.29-.46-.56-1-1-1.6-1.28-.94-.44-1.99-.49-2.91-.06h0c-1.84.86-2.51,3.35-1.49,5.54l11.52,24.59c-.62-.91-2.66-2.29-3.26-2.79-1.26-1.05-2.6-2.01-4.11-2.68-2.57-1.15-5.65-.79-7.33,1.7-.29.43-.52.94-.41,1.45.1.45.45.8.79,1.11,3.25,3.01,6.85,5.65,10.03,8.73,0,0,.71,6.9,6.68,11.06,3.45,2.41,5.14,5.14,5.79,6.42l-.06.05,14.51,50.48-21.19.28v40.38h46.87c3.98,0,7.71-1.07,10.92-2.93.15-.07.31-.14.46-.21h0c10.94-5.34,15.31-18.66,9.65-29.44Z"/>
            <path class="cls-14" d="M296.8,259.2c4.65-.14,0,0,0,0,0,0-10.89-29.3-12.76-40.78-7.22,0-8.31.32-15.53.32l28.29,40.45Z"/>
            <path class="cls-17" d="M272.51,145.53c-.15,0-.3-.07-.4-.2-4.5-6.1-10.32-2.96-10.57-2.82-.24.13-.54.05-.68-.19-.13-.24-.05-.54.19-.68.07-.04,6.83-3.72,11.86,3.1.16.22.12.54-.11.7-.09.07-.19.1-.3.1Z"/>
            <path class="cls-17" d="M255.96,113.72c1.21,1.21,2.32,2.5,3.37,3.84,1.04,1.34,2.02,2.74,2.9,4.21.86,1.48,1.63,3.01,2.24,4.62.58,1.62.99,3.32,1.12,5.07.02.28-.18.52-.46.54-.28.02-.52-.18-.54-.46,0,0,0,0,0,0v-.02c-.1-1.63-.45-3.24-.97-4.81-.56-1.56-1.27-3.07-2.08-4.53-.83-1.45-1.76-2.84-2.76-4.19-1.01-1.34-2.08-2.64-3.23-3.84h0c-.11-.13-.11-.31,0-.43.12-.11.3-.11.42,0Z"/>
            <path class="cls-17" d="M259.34,111.8c1.63.84,2.83,2.1,3.94,3.42,1.1,1.33,2.05,2.78,2.87,4.28.85,1.5,1.55,3.06,2.22,4.64l.91,2.4.81,2.44c.09.26-.06.55-.32.63-.26.09-.55-.06-.63-.32,0,0,0,0,0,0v-.02s-.76-2.41-.76-2.41l-.85-2.38c-.63-1.56-1.28-3.11-2.09-4.59-.77-1.49-1.68-2.91-2.72-4.22-1.03-1.29-2.24-2.55-3.63-3.3l-.05-.03c-.15-.08-.21-.27-.12-.42.08-.15.26-.2.41-.13Z"/>
            <path class="cls-17" d="M264.83,112.65c1.12.91,2.12,1.91,3.05,2.98.94,1.07,1.8,2.2,2.57,3.39.78,1.19,1.48,2.43,2.06,3.74.61,1.29,1.06,2.65,1.48,4.02.08.26-.07.54-.33.62-.26.08-.54-.07-.62-.34,0,0,0,0,0,0v-.03c-.37-1.32-.77-2.65-1.33-3.91-.53-1.27-1.18-2.5-1.91-3.67-.72-1.18-1.53-2.31-2.42-3.37-.88-1.06-1.85-2.08-2.89-2.96h-.01c-.12-.11-.14-.3-.03-.42.1-.12.28-.14.4-.04Z"/>
            <path class="cls-6" d="M267.64,165.2l15.48-1.91-9.57,19.04s-2.85-14.16-5.91-17.13Z"/>
          </g>
          <g>
            <path class="cls-18" d="M205.43,218.82v.02c-.24,0-.47-.02-.71-.02h-48.92c-10.62,0-19.68,6.67-23.23,16.04h0s-.07.2-.07.2c-.01.03-.02.06-.04.1l-20.8,56.71,19.31,2.36v62.98h105.11l7.86-98.02h18.28v-40.57l-56.79.2Z"/>
            <path class="cls-11" d="M262.77,218.62l-55.84.23h0c20.94.88,37.64,18.12,37.64,39.27l-.09,1.07h18.28v-40.57Z"/>
          </g>
        </g>
        <g>
          <path class="cls-13" d="M243.26,261.86l-19.76-3.92c-2.34-.46-4.63,1.07-5.1,3.41l-3.95,19.89-5.11,25.78c-.46,2.34,1.07,4.63,3.41,5.1l8.09,1.6,11.67,2.32c2.34.46,4.63-1.07,5.1-3.41l1.94-9.77,3.15-15.88,3.97-20.02c.46-2.34-1.07-4.63-3.41-5.1Z"/>
          <g>
            <path class="cls-8" d="M245.33,288.41c-.25-.52-.64-.93-1.11-1.21-.08-.12-.15-.25-.24-.37,0,0-.18.02-.47.06-.34-.1-.71-.15-1.07-.12-3.97.31-13.52,1.05-19.36,1.51-3.16.25-6.32-.41-9.12-1.89l-.47-.25.97-4.89c-1.05,1.28-2.11,2.55-3.23,3.74-.57.03-3.83.32-6.88,2.59-1.13.8-2.24,1.86-3.19,3.27-1.19,1.78-2.48,3.01-3.58,3.84-.65.47-1.22.8-1.65,1.01l-.04-.05-44.03,10.9-.2.05,2.23-9.91-40.52-4.91-8.91,38.79c-2.7,11.77,4.65,23.5,16.42,26.2h0c4.22.97,8.43.42,12.08-1.25.71-.25,1.42-.55,2.12-.88l74.53-36.69,10.1-3.79s.41-.16,1.12-.45l-.15-.03c4.61-1.88,30.46-13.05,24.64-25.29Z"/>
            <g>
              <path class="cls-14" d="M106.75,319.84c-.04.21-.07.34-.08.4.01-.07.04-.22.08-.4Z"/>
              <path class="cls-14" d="M151.58,306.76c.91-4.2.65-3.84,2.03-9.86l-46.55,21.38s4.61-1.39,10.98-3.08c.59-.22,1.19-.41,1.81-.58l31.73-7.85Z"/>
              <path class="cls-14" d="M106.87,319.27c-.04.2-.08.4-.11.57.03-.15.07-.34.11-.57Z"/>
              <path class="cls-14" d="M106.68,320.24c-.01.06-.01.06,0,0h0Z"/>
              <path class="cls-14" d="M107.07,318.27c-.08.41-.14.72-.2,1,.1-.5.2-1,.2-1Z"/>
            </g>
            <path class="cls-15" d="M157.37,297.39s-.04,0-.06,0l-8.84-1.09c-.27-.03-.47-.28-.43-.56.03-.27.29-.47.56-.43l8.36,1.03,4.65-29.69c.04-.27.3-.46.57-.42.27.04.46.3.42.57l-4.73,30.17c-.04.25-.25.42-.49.42Z"/>
          </g>
          <path class="cls-12" d="M167.69,302.6l19.96-.5c3.72.49,9.65-2.87,8.96-6.56h0l-28.92,7.06Z"/>
        </g>
        <g>
          <g>
            <path class="cls-13" d="M230.65,206.05l-6.79-46.19c-.74-5.06-2.21-9.83-4.28-14.24l3.68-.59s-2.59-37.49-44.63-28.54c-4.14-.43-8.4-.36-12.71.28h0c-20.43,3-34.55,21.99-31.55,42.42l3.96,26.92c3,20.43,21.99,34.55,42.42,31.55l46.32-6.81c2.32-.34,3.92-2.49,3.58-4.81Z"/>
            <path class="cls-9" d="M202.76,143.56c-.25,0-.46-.18-.5-.43-.04-.27.15-.53.43-.56l13.52-1.85c.11-.01.21-.07.27-.16.04-.05.09-.15.07-.29-2.19-12.19-13.41-17.81-13.53-17.87-.25-.12-.35-.42-.23-.67.12-.25.42-.35.67-.23.12.06,11.79,5.89,14.07,18.59.07.37-.02.74-.24,1.05-.22.31-.57.52-.94.57l-13.52,1.85s-.05,0-.07,0Z"/>
          </g>
          <g>
            <path class="cls-8" d="M215.78,146.23l-37.01,5.95-8.98-13.29c1.76,14.82-9.17,24.4-9.17,24.4,0,0-.11-.15-.31-.43l-.31.06c-5.79,1.08-9.64,6.71-8.56,12.5h0c1.08,5.79,6.71,9.64,12.5,8.56l.71-.13c1.27,5.55,4.12,10.37,8.01,14.02v23.72c0,8.41,6.88,15.29,15.29,15.29h0c8.41,0,15.29-6.88,15.29-15.29v-18.73c6.09-2.8,10.86-7.7,13.58-13.62,0,0,.01-.02.02-.03,3.31-5.54,4.69-12.26,3.41-19.11l-4.47-23.87Z"/>
            <path class="cls-19" d="M198.32,202.13h0c-13.71,2.57-26.95-5.54-31.15-18.47-.14-.42-2.55.13-2.49.39,1.3,5.5,4.18,10.26,8.06,13.88.72,7.75,7.28,13.88,15.22,13.88h0c5.87,0,10.98-3.36,13.54-8.24,6.93-2.63,12.37-7.88,15.34-14.37-3.9,6.53-10.46,11.41-18.52,12.92Z"/>
          </g>
          <g>
            <path class="cls-17" d="M158.89,176.95c-.15,0-.3-.07-.4-.19-.17-.22-.13-.53.09-.7l3.33-2.58-4.24-4c-.2-.19-.21-.51-.02-.71.19-.2.51-.21.71-.02l4.67,4.41c.11.1.16.24.16.39,0,.15-.08.28-.19.37l-3.79,2.94c-.09.07-.2.11-.31.11Z"/>
            <g>
              <g>
                <path class="cls-13" d="M185.52,158.72c.45-.01.91-.28,1.36-.52.46-.25.92-.48,1.33-.68.41-.19.89-.4,1.38-.59.48-.2.98-.38,1.27-.71.28-.31.23-.81-.44-1.14-.63-.33-1.92-.41-3.28.22-1.36.64-2.11,1.67-2.25,2.36-.16.71.2,1.07.63,1.05Z"/>
                <path class="cls-13" d="M212.04,154.1c-.43.11-.95-.02-1.45-.12-.51-.11-1.02-.21-1.47-.28-.45-.07-.97-.13-1.48-.18-.51-.06-1.05-.09-1.42-.33-.36-.22-.44-.71.1-1.22.52-.49,1.73-.92,3.22-.69,1.48.24,2.49,1.02,2.81,1.64.35.64.1,1.08-.31,1.18Z"/>
              </g>
              <path class="cls-17" d="M197.06,179.41c-4.1,0-6.84-3.22-6.87-3.26-.18-.21-.15-.53.06-.7.21-.18.53-.15.7.06.16.19,3.95,4.62,9.25,2.17.25-.12.55,0,.66.24.12.25,0,.55-.24.66-1.27.59-2.47.82-3.57.82Z"/>
              <path class="cls-17" d="M200.04,172.43c-.23,0-.44-.17-.49-.4-.05-.27.12-.53.39-.59l3.52-.69c2.19-.43,3.61-2.56,3.18-4.74-.16-.79-.92-1.3-1.71-1.15-1.85.36-3.65-.84-4.01-2.69l-.85-4.31c-.05-.27.12-.53.39-.59.27-.05.53.12.59.39l.85,4.31c.26,1.31,1.53,2.16,2.84,1.9.65-.13,1.3,0,1.85.37.55.37.92.92,1.04,1.57.54,2.73-1.24,5.38-3.97,5.92l-3.52.69s-.07,0-.1,0Z"/>
              <path class="cls-13" d="M190.08,167.15h0c-.67.13-1.32-.32-1.44-.99l-.28-1.48c-.13-.67.32-1.32.99-1.44h0c.67-.13,1.32.32,1.44.99l.28,1.48c.13.67-.32,1.32-.99,1.44Z"/>
              <path class="cls-13" d="M211.05,163.75h0c-.67.13-1.32-.32-1.44-.99l-.28-1.48c-.13-.67.32-1.32.99-1.44h0c.67-.13,1.32.32,1.44.99l.28,1.48c.13.67-.32,1.32-.99,1.44Z"/>
              <path class="cls-14" d="M189.21,172.73l-4.22.47c-.84.09-1.6-.51-1.69-1.35h0c-.09-.84.51-1.6,1.35-1.69l4.22-.47c.84-.09,1.6.51,1.69,1.35h0c.09.84-.51,1.6-1.35,1.69Z"/>
              <path class="cls-14" d="M217.6,168.26l-4.22.47c-.84.09-1.6-.51-1.69-1.35h0c-.09-.84.51-1.6,1.35-1.69l4.22-.47c.84-.09,1.6.51,1.69,1.35h0c.09.84-.51,1.6-1.35,1.69Z"/>
              <path class="cls-17" d="M205.09,190.29c-.1,0-.21-.03-.29-.1-1.97-1.44-4.01-.05-4.1,0-.23.16-.54.1-.7-.12-.16-.23-.1-.54.12-.7.93-.65,3.22-1.49,5.26,0,.22.16.27.48.11.7-.1.13-.25.21-.4.21Z"/>
            </g>
          </g>
        </g>
      </g>
    </g>
  </g>
</svg>