<svg width="78" height="72" viewBox="0 0 78 72" fill="none" xmlns="http://www.w3.org/2000/svg">
<path d="M60.2512 22.5806L53.0459 30.6868L51.7928 29.5721L58.0068 22.5806L51.7928 15.59L53.0459 14.4754L60.2512 22.5806ZM45.0832 14.4745L37.8778 22.5806L45.0832 30.6868L46.3362 29.5721L40.1222 22.5806L46.3362 15.59L45.0832 14.4745ZM47.3905 31.731L49.0612 31.8828L50.7386 13.4312L49.0679 13.2794L47.3905 31.731ZM29.9864 42.4279L36.2004 49.4194L29.9864 56.4108L31.2394 57.5246L38.4448 49.4194L31.2394 41.3141L29.9864 42.4279ZM23.2767 41.3141L16.0714 49.4194L23.2767 57.5246L24.5297 56.4108L18.3157 49.4194L24.5297 42.4279L23.2767 41.3141ZM25.584 58.5688L27.2547 58.7215L28.9321 40.2699L27.2614 40.1172L25.584 58.5688ZM18.0323 26.7742H16.3548V28.4516H18.0323V26.7742ZM21.3871 26.7742H19.7097V28.4516H21.3871V26.7742ZM24.7419 26.7742H23.0645V28.4516H24.7419V26.7742ZM31.4516 33.4839H29.7742V35.1613H31.4516V33.4839ZM28.0968 33.4839H26.4194V35.1613H28.0968V33.4839ZM16.3548 35.1613H24.7419V33.4839H16.3548V35.1613ZM46.5484 48.5806H48.2258V41.871H46.5484V48.5806ZM56.6129 48.5806H58.2903V41.871H56.6129V48.5806ZM43.1935 48.5806H41.5161C40.591 48.5806 39.8387 47.8283 39.8387 46.9032V43.5484C39.8387 42.6233 40.591 41.871 41.5161 41.871H43.1935C44.1186 41.871 44.871 42.6233 44.871 43.5484V46.9032C44.871 47.8283 44.1186 48.5806 43.1935 48.5806ZM41.5161 46.9032H43.1952L43.1935 43.5484H41.5161V46.9032ZM53.2581 48.5806H51.5806C50.6555 48.5806 49.9032 47.8283 49.9032 46.9032V43.5484C49.9032 42.6233 50.6555 41.871 51.5806 41.871H53.2581C54.1832 41.871 54.9355 42.6233 54.9355 43.5484V46.9032C54.9355 47.8283 54.1832 48.5806 53.2581 48.5806ZM51.5806 46.9032H53.2597L53.2581 43.5484H51.5806V46.9032ZM39.8387 56.9677H41.5161V50.2581H39.8387V56.9677ZM48.2258 51.9355V55.2903C48.2258 56.2154 47.4735 56.9677 46.5484 56.9677H44.871C43.9459 56.9677 43.1935 56.2154 43.1935 55.2903V51.9355C43.1935 51.0104 43.9459 50.2581 44.871 50.2581H46.5484C47.4735 50.2581 48.2258 51.0104 48.2258 51.9355ZM46.5484 51.9355H44.871V55.2903H46.5484V51.9355ZM49.9032 56.9677H51.5806V50.2581H49.9032V56.9677ZM58.2903 51.9355V55.2903C58.2903 56.2154 57.538 56.9677 56.6129 56.9677H54.9355C54.0104 56.9677 53.2581 56.2154 53.2581 55.2903V51.9355C53.2581 51.0104 54.0104 50.2581 54.9355 50.2581H56.6129C57.538 50.2581 58.2903 51.0104 58.2903 51.9355ZM56.6129 51.9355H54.9355V55.2903H56.6129V51.9355ZM65 14.1935V30.9677C65 32.9924 63.5566 34.6866 61.6452 35.0766V62H13V23.4194H33.129V14.1935C33.129 11.8812 35.0103 10 37.3226 10H60.8065C63.1188 10 65 11.8812 65 14.1935ZM14.6774 25.0968V30.129H33.129V25.0968H14.6774ZM59.9677 60.3226V35.1613H37.3226C35.2979 35.1613 33.6037 33.7179 33.2137 31.8065H14.6774V60.3226H59.9677ZM63.3226 14.1935C63.3226 12.8063 62.1937 11.6774 60.8065 11.6774H37.3226C35.9354 11.6774 34.8065 12.8063 34.8065 14.1935V30.9677C34.8065 32.355 35.9354 33.4839 37.3226 33.4839H60.8065C62.1937 33.4839 63.3226 32.355 63.3226 30.9677V14.1935ZM60.8065 30.129C60.3435 30.129 59.9677 30.5048 59.9677 30.9677C59.9677 31.4307 60.3435 31.8065 60.8065 31.8065C61.2694 31.8065 61.6452 31.4307 61.6452 30.9677C61.6452 30.5048 61.2694 30.129 60.8065 30.129ZM60.8065 13.3548C60.3435 13.3548 59.9677 13.7306 59.9677 14.1935C59.9677 14.6565 60.3435 15.0323 60.8065 15.0323C61.2694 15.0323 61.6452 14.6565 61.6452 14.1935C61.6452 13.7306 61.2694 13.3548 60.8065 13.3548ZM37.3226 30.129C36.8596 30.129 36.4839 30.5048 36.4839 30.9677C36.4839 31.4307 36.8596 31.8065 37.3226 31.8065C37.7855 31.8065 38.1613 31.4307 38.1613 30.9677C38.1613 30.5048 37.7855 30.129 37.3226 30.129ZM37.3226 15.0323C37.7855 15.0323 38.1613 14.6565 38.1613 14.1935C38.1613 13.7306 37.7855 13.3548 37.3226 13.3548C36.8596 13.3548 36.4839 13.7306 36.4839 14.1935C36.4839 14.6565 36.8596 15.0323 37.3226 15.0323Z" fill="#FBAD1C"/>
</svg>
