<svg width="78" height="72" viewBox="0 0 78 72" fill="none" xmlns="http://www.w3.org/2000/svg">
<path d="M40.0436 24.1946C39.928 24.0581 39.7144 23.9336 39.4766 23.9336C39.2443 23.9336 39.027 24.056 38.9096 24.1946C38.5561 24.6115 30.2495 34.4548 30.2495 39.3569C30.2495 41.3481 30.8957 43.2745 32.0751 44.8597C31.732 45.2831 31.5176 45.8149 31.5176 46.4009V49.8384C31.5176 51.1852 32.6055 52.28 33.9484 52.2974V58.2646C33.9484 59.7729 35.1758 61.0003 36.6841 61.0003H42.2695C43.7777 61.0003 45.0048 59.7729 45.0048 58.2646V52.2974C46.3477 52.2802 47.4359 51.1854 47.4359 49.8384V46.4009C47.4359 45.8149 47.2215 45.2831 46.8782 44.8597C48.0579 43.2743 48.704 41.3479 48.704 39.3567C48.704 34.4548 40.397 24.6115 40.0436 24.1946ZM38.7328 26.7673V35.515H37.1258C36.7152 35.515 36.3821 35.8482 36.3821 36.2588C36.3821 36.6693 36.7152 37.0025 37.1258 37.0025H41.8274C42.2379 37.0025 42.5711 36.6693 42.5711 36.2588C42.5711 35.8482 42.2379 35.515 41.8274 35.515H40.2203V26.7669C42.942 30.2236 47.2166 36.3006 47.2166 39.3567C47.2166 41.0556 46.6537 42.6967 45.6317 44.039C45.4207 43.9799 45.2029 43.9383 44.9733 43.9383H33.9799C33.7506 43.9383 33.5327 43.9799 33.3218 44.039C32.2996 42.6969 31.737 41.0556 31.737 39.3569C31.7372 36.3026 36.0116 30.2248 38.7328 26.7673ZM43.5173 58.2644C43.5173 58.953 42.9577 59.5127 42.2695 59.5127H36.6841C35.9955 59.5127 35.4358 58.953 35.4358 58.2644V52.3004H43.5171V58.2644H43.5173ZM45.9485 49.8384C45.9485 50.3758 45.5111 50.8132 44.9733 50.8132C42.728 50.8132 37.8689 50.8132 33.9799 50.8132C33.4424 50.8132 33.0051 50.3758 33.0051 49.8384V46.4009C33.0051 45.8631 33.4424 45.4257 33.9799 45.4257H44.9733C45.5111 45.4257 45.9485 45.8631 45.9485 46.4009V49.8384Z" fill="#FBAD1C"/>
<path d="M18.9648 16.2676C18.9648 13.3629 16.6019 11 13.6974 11C10.7931 11 8.43018 13.3629 8.43018 16.2676C8.43018 19.172 10.7931 21.5349 13.6974 21.5349C16.6019 21.5347 18.9648 19.1718 18.9648 16.2676ZM9.91764 16.2676C9.91764 14.1832 11.6134 12.4875 13.6974 12.4875C15.7816 12.4875 17.4774 14.1832 17.4774 16.2676C17.4774 18.3517 15.7816 20.0474 13.6974 20.0474C11.6134 20.0472 9.91764 18.3517 9.91764 16.2676Z" fill="#FBAD1C"/>
<path d="M71.0163 16.2676C71.0163 13.3629 68.6534 11 65.7491 11C62.8443 11 60.4814 13.3629 60.4814 16.2676C60.4814 19.172 62.8443 21.5349 65.7491 21.5349C68.6534 21.5347 71.0163 19.1718 71.0163 16.2676ZM61.9689 16.2676C61.9689 14.1832 63.6646 12.4875 65.7491 12.4875C67.8331 12.4875 69.5288 14.1832 69.5288 16.2676C69.5288 18.3517 67.8331 20.0474 65.7491 20.0474C63.6646 20.0472 61.9689 18.3517 61.9689 16.2676Z" fill="#FBAD1C"/>
<path d="M13.3851 36.2147C13.4468 36.2307 13.5091 36.2379 13.5702 36.2379C13.9018 36.2379 14.204 36.0148 14.2901 35.6786C16.7419 26.1072 24.8355 18.8127 34.561 17.3135C35.0475 19.7184 37.1769 21.5351 39.7237 21.5351C42.2702 21.5351 44.3997 19.7182 44.886 17.3131C54.5896 18.8073 62.6739 26.0773 65.1342 35.6159C65.2205 35.9509 65.5225 36.1738 65.8537 36.1738C65.9152 36.1738 65.9777 36.1661 66.0402 36.15C66.4376 36.0473 66.6768 35.6421 66.5743 35.2441C64.3714 26.703 57.9132 19.8795 49.7611 17.0105H58.2532C58.6637 17.0105 58.9969 16.6773 58.9969 16.2667C58.9969 15.8562 58.6637 15.523 58.2532 15.523H44.9318C44.5679 12.9709 42.3743 11.0005 39.7237 11.0005C37.0726 11.0005 34.8789 12.9709 34.5149 15.523H21.1954C20.7844 15.523 20.4516 15.8562 20.4516 16.2667C20.4516 16.6773 20.7844 17.0105 21.1954 17.0105H29.6884C21.5147 19.8866 15.0454 26.7355 12.8491 35.3099C12.7473 35.7075 12.9871 36.1123 13.3851 36.2147ZM39.7237 12.4878C41.8051 12.4878 43.4989 14.1795 43.503 16.2606C43.503 16.2626 43.5024 16.2645 43.5024 16.2665C43.5024 16.2689 43.503 16.2711 43.5032 16.2735C43.5002 18.3549 41.8059 20.0477 39.7239 20.0477C37.6394 20.0477 35.9437 18.352 35.9437 16.2679C35.9435 14.1835 37.639 12.4878 39.7237 12.4878Z" fill="#FBAD1C"/>
<path d="M12.2672 48.1472C15.1718 48.1472 17.5347 45.7844 17.5347 42.88C17.5347 39.9757 15.1718 37.6128 12.2672 37.6128C9.36289 37.6128 7 39.9757 7 42.88C7 45.7844 9.36289 48.1472 12.2672 48.1472ZM12.2672 39.1003C14.3515 39.1003 16.0472 40.796 16.0472 42.88C16.0472 44.9641 14.3515 46.6598 12.2672 46.6598C10.1832 46.6598 8.48747 44.9641 8.48747 42.88C8.48747 40.796 10.1832 39.1003 12.2672 39.1003Z" fill="#FBAD1C"/>
<path d="M71.9514 42.88C71.9514 39.9757 69.5886 37.6128 66.6842 37.6128C63.7799 37.6128 61.417 39.9757 61.417 42.88C61.417 45.7844 63.7799 48.1472 66.6842 48.1472C69.5886 48.1472 71.9514 45.7842 71.9514 42.88ZM66.6842 46.6598C64.6002 46.6598 62.9045 44.9641 62.9045 42.88C62.9045 40.796 64.6002 39.1003 66.6842 39.1003C68.7683 39.1003 70.464 40.796 70.464 42.88C70.464 44.9641 68.7683 46.6598 66.6842 46.6598Z" fill="#FBAD1C"/>
</svg>
