<svg width="37" height="37" viewBox="0 0 37 37" fill="none" xmlns="http://www.w3.org/2000/svg">
<path d="M18.51 37C17.9852 37.0031 17.4714 36.8498 17.0341 36.5597C16.5968 36.2696 16.2558 35.8558 16.0545 35.3711C15.8533 34.8865 15.8009 34.3528 15.9042 33.8383C16.0074 33.3238 16.2615 32.8516 16.6341 32.4821L30.6371 18.5055L16.6341 4.52885C16.2013 4.02342 15.9751 3.37327 16.0008 2.70832C16.0265 2.04337 16.3021 1.4126 16.7727 0.942061C17.2432 0.471521 17.874 0.195867 18.5389 0.170183C19.2039 0.144499 19.854 0.370677 20.3594 0.80352L36.2119 16.656C36.704 17.151 36.9802 17.8207 36.9802 18.5187C36.9802 19.2167 36.704 19.8863 36.2119 20.3813L20.3594 36.2338C19.8673 36.7219 19.2031 36.9971 18.51 37Z" fill="#FBAD1C"/>
<path d="M2.65745 36.9999C2.13266 37.003 1.61886 36.8497 1.18155 36.5596C0.744229 36.2695 0.403212 35.8557 0.201974 35.3711C0.000734803 34.8864 -0.0516088 34.3528 0.0516164 33.8382C0.154842 33.3237 0.408959 32.8515 0.781569 32.482L14.7846 18.5054L0.781569 4.52877C0.284055 4.03126 0.00455502 3.35648 0.00455502 2.65289C0.00455503 1.9493 0.284055 1.27453 0.781569 0.777014C1.27908 0.2795 1.95386 5.24216e-09 2.65745 0C3.36104 -5.24216e-09 4.03581 0.2795 4.53332 0.777014L20.3858 16.6295C20.8779 17.1245 21.1541 17.7942 21.1541 18.4922C21.1541 19.1902 20.8779 19.8598 20.3858 20.3548L4.53332 36.2073C4.28863 36.457 3.99683 36.6556 3.67482 36.7916C3.35282 36.9277 3.00701 36.9985 2.65745 36.9999Z" fill="#FBAD1C"/>
</svg>
