<svg width="361" height="361" viewBox="0 0 361 361" fill="none" xmlns="http://www.w3.org/2000/svg">
<path d="M173.242 112.749L115.06 15.3639L69.6311 44.2629L127.868 141.777L130.453 146.106L125.449 145.495L10.5776 131.477L3 183.66L117.759 197.665L122.904 198.293L119.176 201.893L36.3456 281.896L73.7778 320.651L156.608 240.648L160.336 237.048L160.785 242.211L170.789 357.395L223.211 351.627L213.197 236.33L212.761 231.307L216.997 234.041L312.423 295.636L342.882 251.238L247.575 189.71L243.346 186.98L248.093 185.306L357.883 146.588L342.358 95.7385L232.755 134.404L227.78 136.159L229.618 131.214L270.49 21.2954L220.167 4L177.661 112.384L175.823 117.071L173.242 112.749Z" stroke="url(#paint0_linear_427_105)" stroke-width="4.9396"/>
<defs>
<linearGradient id="paint0_linear_427_105" x1="308.83" y1="56.1672" x2="-442" y2="726.5" gradientUnits="userSpaceOnUse">
<stop offset="0.00661055" stop-color="#FFDF99"/>
<stop offset="0.966335" stop-color="#111111" stop-opacity="0"/>
</linearGradient>
</defs>
</svg>
