<svg width="78" height="72" viewBox="0 0 78 72" fill="none" xmlns="http://www.w3.org/2000/svg">
<path fill-rule="evenodd" clip-rule="evenodd" d="M61.0001 54.7952V29.6305C61.0001 27.6466 59.3294 25.9759 57.2411 25.9759H53.1688V27.0201H57.2411C58.7029 27.0201 59.956 28.2731 59.956 29.6305V53.0201C59.956 53.4378 59.6427 53.751 59.1206 53.751H18.2933C17.8756 53.751 17.5624 53.4378 17.5624 53.0201V29.6305C17.5624 28.2731 18.711 27.0201 20.1728 27.0201H23.9319V26.0803H20.1728C18.1889 26.0803 16.5182 27.751 16.5182 29.7349V54.7952H61.0001ZM49.0965 40.49H28.1086C27.0644 40.49 27.0644 39.0281 28.1086 39.0281H48.9921C50.0363 39.0281 50.0363 40.49 49.0965 40.49ZM49.0965 36.7309H28.1086C27.0644 36.7309 27.0644 35.1647 28.1086 35.1647H48.9921C50.0363 35.1647 50.0363 36.7309 49.0965 36.7309ZM49.0965 32.9719H28.1086C27.0644 32.9719 27.0644 31.4056 28.1086 31.4056H48.9921C50.0363 31.4056 50.0363 32.9719 49.0965 32.9719ZM49.0965 29.1084H28.1086C27.0644 29.1084 27.0644 27.5422 28.1086 27.5422H48.9921C50.0363 27.5422 50.0363 29.1084 49.0965 29.1084ZM49.0965 25.3494H28.1086C27.0644 25.3494 27.0644 23.7831 28.1086 23.7831H48.9921C50.0363 23.7831 50.0363 25.3494 49.0965 25.3494ZM49.0965 21.4859H28.1086C27.0644 21.4859 27.0644 19.9197 28.1086 19.9197H48.9921C50.0363 19.9197 50.0363 21.4859 49.0965 21.4859ZM46.6949 19.2932C45.6507 19.2932 45.6507 17.7269 46.6949 17.7269C46.9037 17.7269 47.4258 16.8916 47.5302 15.4297H43.6668C43.3535 19.6064 40.4298 19.9197 40.4298 18.4578C40.4298 18.0402 40.8475 17.7269 41.2652 17.7269C41.474 17.7269 41.9961 16.8916 42.1005 15.4297H38.2371C38.0282 19.7108 35.1045 19.9197 35.1045 18.4578C35.1045 18.0402 35.5222 17.7269 35.9399 17.7269C36.1487 17.6225 36.6708 16.8916 36.7752 15.4297H32.9118C32.5985 19.7108 29.6748 19.9197 29.6748 18.4578C29.6748 18.0402 30.0925 17.7269 30.5102 17.7269C30.719 17.7269 31.2411 16.8916 31.3455 15.4297H26.4379C25.9158 15.4297 25.3937 15.9518 25.3937 16.3695V44.1446C25.3937 44.6667 25.9158 45.0843 26.4379 45.0843H50.7672C51.2893 45.0843 51.707 44.6667 51.707 44.1446V16.3695C51.707 15.2209 50.0363 15.4297 49.0965 15.4297C48.8877 17.7269 47.9479 19.2932 46.6949 19.2932ZM47.5302 13.9679C47.4258 12.4016 46.9037 11.5663 46.6949 11.5663C46.4861 11.5663 45.964 12.4016 45.7551 13.9679H47.5302ZM44.2933 13.9679C44.711 8.85141 48.6788 8.74699 49.0965 13.9679H50.7672C52.1246 13.9679 53.1688 15.012 53.1688 16.3695V24.4096H57.2411C60.1648 24.4096 62.5664 26.8112 62.5664 29.6305V54.7952H64.7592C65.1768 54.7952 65.4901 55.2129 65.4901 55.6305V58.3454C65.4901 60.3293 63.8194 62 61.9399 62H15.5784C13.5945 62 12.0282 60.3293 12.0282 58.3454C12.0282 54.3775 11.5061 54.7952 14.9519 54.7952V29.6305C14.9519 26.8112 17.3535 24.5141 20.1728 24.5141H23.9319V16.3695C23.9319 15.012 25.0804 13.9679 26.4379 13.9679H28.0041C28.4218 8.74699 32.4941 8.74699 32.9118 13.9679H33.4339C33.5383 11.8795 34.3736 10 35.8355 10C37.2973 10 38.0282 11.9839 38.2371 13.9679H38.7592C39.1768 8.74699 43.2491 8.74699 43.6668 13.9679H44.2933ZM42.1005 13.9679C41.9961 12.4016 41.474 11.5663 41.2652 11.5663C41.0564 11.5663 40.5343 12.4016 40.3254 13.9679H42.1005ZM36.7752 13.9679C36.6708 12.4016 36.1487 11.5663 35.8355 11.5663C35.731 11.5663 35.1045 12.4016 35.0001 13.9679H36.7752ZM31.3455 13.9679C31.2411 12.4016 30.719 11.5663 30.5102 11.5663C30.3013 11.5663 29.7792 12.4016 29.5704 13.9679H31.3455ZM50.7672 46.6506H26.4379C25.0804 46.6506 23.9319 45.502 23.9319 44.1446V28.5863H20.1728C19.6507 28.5863 19.0242 29.1084 19.0242 29.7349V52.2892H58.3897V29.7349C58.3897 29.1084 57.8676 28.5863 57.2411 28.5863H53.1688V44.1446C53.2732 45.502 52.1246 46.6506 50.7672 46.6506ZM53.2732 59.1807C52.5423 59.1807 51.0804 59.3896 51.0804 58.3454C51.0804 57.4056 52.5423 57.6145 53.2732 57.6145C54.3174 57.6145 54.3174 59.1807 53.2732 59.1807ZM57.1367 59.1807C56.4058 59.1807 54.9439 59.3896 54.9439 58.3454C54.9439 57.4056 56.4058 57.6145 57.1367 57.6145C58.1809 57.6145 58.1809 59.1807 57.1367 59.1807ZM61.0001 59.1807C60.2692 59.1807 58.8074 59.3896 58.8074 58.3454C58.8074 57.4056 60.2692 57.6145 61.0001 57.6145C62.0443 57.6145 62.0443 59.1807 61.0001 59.1807ZM27.3776 59.1807H17.458C16.5182 59.1807 16.5182 57.6145 17.458 57.6145H27.3776C28.3174 57.6145 28.3174 59.1807 27.3776 59.1807ZM43.0403 59.1807H34.478C33.3294 59.1807 32.3897 58.241 32.3897 57.0924V56.3614H13.4901V58.4498C13.4901 59.5984 14.4298 60.4337 15.5784 60.4337H61.9399C63.0885 60.4337 64.0282 59.5984 64.0282 58.4498V56.3614H45.2331V57.0924C45.1286 58.241 44.1889 59.1807 43.0403 59.1807ZM33.9559 56.3614C33.9559 56.8835 33.8515 57.6145 34.5825 57.6145H43.0403C43.7712 57.6145 43.6668 56.8835 43.6668 56.3614H33.9559Z" fill="#FBAD1C"/>
</svg>
